<?xml version="1.0" encoding="utf-8"?>
<!-- Generator: Adobe Illustrator 22.1.0, SVG Export Plug-In . SVG Version: 6.00 Build 0)  -->
<svg version="1.1" id="Layer_1" xmlns="http://www.w3.org/2000/svg" xmlns:xlink="http://www.w3.org/1999/xlink" x="0px" y="0px"
	 viewBox="0 0 484.1 127.3" style="enable-background:new 0 0 484.1 127.3;" xml:space="preserve">
<style type="text/css">
	.st0{fill:none;stroke:#231F20;stroke-width:0.5;stroke-miterlimit:10;}
	.st1{fill:#122236;}
	.st2{fill:#E91233;}
	.st3{fill:#E4001B;}
	.st4{fill:none;stroke:#122236;stroke-miterlimit:10;}
	.st5{fill:none;stroke:#000000;stroke-width:0.5;stroke-miterlimit:10;}
</style>
<path class="st0" d="M798.1-193.4"/>
<path class="st1" d="M983,466.5c-12.6-4.6,10.6-61.4,1.8-129.3c-1.9-14.7-6.5-47.6-27.5-83.1c-27.6-46.7-66.9-69.6-81.3-77.8
	c-24.6-14-45.2-19.6-50.9-21.1c-13.4-3.5-64.4-16.7-98.3,5.3c-10.2,6.6-22.9,14.9-25.7,28.7c-1.3,6.2-0.1,11.4-4.2,14.9
	c-6.9,6.1-21,0.6-22.5,0c-5.8-2.2-11.1-6.3-13.3-8.3c-0.5-0.5-0.8-0.8-0.8-0.8c-0.1,0.1,6,6.2,14.2,9.1c1,0.4,10.4,3.4,17.5-0.7
	c1.1-0.6,3.3-1.9,4.4-4.4c0.8-1.9,0.6-3.3,0.7-5.7c0,0,0.1-4,1.5-9.2c1.3-4.7,4-7.9,6.4-10.5c13.2-15,32.5-22.7,32.5-22.7
	c7.7-3.1,20.4-7,39.9-7.9c16.8-0.7,37.8,1.2,65.5,10.5c23.9,8.1,67.9,22.9,105.3,65.5c29.5,33.6,40.4,68,46.2,87.2
	c7.8,25.7,10.5,50.8,12,76.1c0,0,0.8,13.9-0.9,35.7c-2.8,36.1-9.3,43.7-15.2,46.8C987.4,466.2,985.2,467.3,983,466.5z"/>
<path class="st1" d="M1324.7,127.8c-5.8-6.7-5.9-10.8-5.3-13.2c1.6-5.5,9.1-7.3,35.5-15.4c17-5.2,21.4-6.7,25-11.4
	c5.1-6.5,5.9-15.5,4.8-21.5c-4.8-26.3-54.2-37.4-67.1-40.4c-9.8-2.2-41.8-8.7-88.2,0c-96.3,18-105.5,39.1-146.3,75.1
	c-19.6,17.3-30.1,31-34.4,36.8c-12.9,17.4-27.7,37.5-33.8,66.4c-5.5,26.2-1.5,48.6-13.7,54c-1.2,0.5-4.9,2.2-7.6,0.6
	c-12-6.8,3.5-68.2,32.2-112.9c23.6-36.8,52.4-56.6,77.4-73.4c22.9-15.4,76.4-50.5,152.5-56.2c0,0,70.6-5.3,115,25.8
	c5,3.5,16.9,11.9,19,25.4c0.3,2.2,1.6,12.3-4.7,20.5c-1,1.3-3.7,4.5-11.7,8.2c-13.8,6.3-22.5,4.9-42.1,11.1
	c-6.9,2.2-10.6,3.9-11.7,7.3C1317.6,120,1323.2,126.3,1324.7,127.8z"/>
<path class="st1" d="M851.7,206.8c-46.5,1.3-76.4,28.2-94.9,13.3c-7.3-5.9-10.1-16.1-9.5-23.8c1.5-17.7,22-27.7,24.6-29
	c24.8-11.7,53,1,81.6,14c15.7,7.1,38.6,19.4,63.2,40.4C898.2,212.7,876.2,206.1,851.7,206.8z"/>
<path class="st1" d="M919.7,277.5c-24.6-8.4-44.3-2.1-59-18.1c-2-2.2-10.6-12.1-7.7-20.8c3.3-10,20.1-13.4,31.3-13
	c24,1,40.7,20.8,52.6,34.8c8.1,9.5,20.2,26.4,28.3,51.4C948.6,290.7,932,281.7,919.7,277.5z"/>
<path class="st1" d="M943.8,350.7c-17.5-8.8-31.6-4.3-41.8-17.2c-5.4-6.9-9.4-18.4-4.7-25.8c3.9-6.2,12.4-7.2,14.5-7.4
	c21.6-2.5,42.4,20.5,51.8,36c12,19.7,13.1,39.8,12.7,51.3C966,365.2,953.4,355.5,943.8,350.7z"/>
<path class="st1" d="M951.7,407.7c-11.9-7.6-23.4-3.8-29.8-13.2c-4.8-7-4.9-18.4,0.9-24.1c7.4-7.5,22-3.1,29.8,2.2
	c9.5,6.4,12.6,16.3,15.8,27.2c2.5,8.5,5.6,23.4,2.6,43C967.2,421.5,958.8,412.2,951.7,407.7z"/>
<path class="st1" d="M1249.2,68.1c-16-9.9-42.4-19.1-86.9-12.3c39.3-25.3,73.7-29.3,91.3-29.8c17.8-0.6,59.3-1.9,72.8,21.9
	c5.3,9.3,7.3,24.1,0,33.3c-7.8,9.9-22.9,9.1-29,8.8C1275.3,88.9,1262,76,1249.2,68.1z"/>
<path class="st1" d="M1130.7,114.6c-16.7-1.8-41.4,3.4-75.5,36c18.3-28,50-65.2,97.4-78.1c13.6-3.7,41.7-11.3,53.4,2.6
	c7.2,8.6,7.4,24.4,0,33.3c-3.3,4-9,7.5-29,8.8C1154,118.7,1138.2,115.4,1130.7,114.6z"/>
<path class="st1" d="M1057,201.5c-11.4,6.3-26.3,18.6-38.6,44.8c3.8-15.6,23.3-90.3,68.5-103.2c7.3-2.1,27.5-7.9,36.9,2.3
	c4.6,5.1,6.3,13.7,3.5,20.2c-3.4,8-12.6,10.6-20.2,13.2C1107,178.7,1084.6,186.2,1057,201.5z"/>
<path class="st1" d="M1029.8,298.9c-4.7,7.2-9.9,18.4-11.4,35.1c-1.3-17.8-3.7-73.5,25.4-95.7c5.1-3.9,17-13,25.7-8.6
	c5.9,3,8.8,11.4,7.7,18.2c-1.3,7.7-7.4,5.7-17.6,14C1057.1,264.1,1039.3,284.3,1029.8,298.9z"/>
<path class="st1" d="M1028.9,369.1c-4.6,6.3-10.1,16.6-11.9,33c-1.2-8.8-8.4-65.5,18.9-83.9c3.2-2.2,17.4-11.8,26.3-6.1
	c4,2.5,6.3,7.6,6.1,12.3c-0.2,6.8-5.8,11-13.2,17.6C1051.6,345.1,1036.4,358.8,1028.9,369.1z"/>
<path class="st1" d="M974.5,216.9c-0.4,0.2-4.2,2.2-6,0.7c-2.2-1.8,0-7.6,1-10.6c3-8.9,4.3-19.9,7.4-42c0.3-2,0.4-3.6,0.8-6.7
	c0.3-2.7,0.7-6.6,1.1-11.2c0.4-4.5,2-25,0.3-43.2c-2.4-26.2-11.1-42.9-10.3-43.2c0.9-0.3,11.9,19.6,14.6,43.3
	c0.7,5.8,1.7,18.7,1.5,32.9c0,3.1-0.1,6.1-0.2,7.4c-0.2,6.6-0.7,12.5-1.6,26.8C981.3,202.3,981.2,213.3,974.5,216.9z"/>
<path class="st1" d="M1005.7,63.3c-1.6,6.7-2,9-3.7,16.7c-1.1,5.2-1.8,8.2-2,9.2c-1.4,6.3-3.6,22-2.2,40.8
	c0.6,7.7,1.8,15.1-2.6,20.6c-0.5,0.6-2.5,3.1-3.9,2.6c-2.4-0.8-1.7-9.3-1.3-13.6c3.8-40.9,9.7-62.3,9.7-62.3
	c5.3-19.3,11.1-34.7,11-34.4C1009.4,47.6,1007.7,54.6,1005.7,63.3z"/>
<path class="st1" d="M921.9,136.3c-0.6-2.2-2.1-8.1,1-13.1c3.4-5.5,10.4-7.2,15.5-6.8c9.3,0.8,15.2,9.5,18.4,14.1
	c16,23.6,9.1,60.5,6.8,71.4c-2.6-23.1-10.8-35.1-18.4-41.8C936.4,152.4,925.2,148.4,921.9,136.3z"/>
<g>
	<path class="st2" d="M1065.4,31.7c-29.4,16.4-68.3,11-95.5-14.2c13.4,2.1,34.6,3.7,59.3-2.2c39.8-9.5,64.9-32.9,75.3-43.8
		C1103.9-24.1,1098.4,13.2,1065.4,31.7z"/>
	<g>
		<g>
			<path class="st2" d="M947,4.8c-7.2-2.1-58.4-18-81.1-70.7c-27.8-64.7,14-123.3,15.9-125.8c-4.9,2.4-62.5,31.5-70.1,93.6
				c-1.1,8.6-7.5,61,32.3,93C871.9,17.3,912,21.2,947,4.8z"/>
			<path class="st2" d="M862.3-75.2c3.5,10.3,10,24.8,22,39.2c2.5,3,12.6,14.7,29.5,25.5C926.5-2.5,938.3,2.1,947,4.8
				c-4.3-1.7-22.5-9.4-32.6-30.1c-10.4-21.2-4.9-40.8-3.6-45.1c-3.8-8.9-7.8-20.6-10.1-34.8c-3.3-20.8-1.5-38.4,0.7-50.2
				c-8.7,8.3-22,23.2-30.8,45.6C865.4-96.5,863.2-84.5,862.3-75.2z"/>
		</g>
		<g>
			<path class="st2" d="M960.6,1.5c5.6-5.1,44.6-41.8,41.8-99.1c-3.4-70.4-66.7-104.6-69.5-106.1c5.4,0,70,0.9,104.1,53.3
				c4.7,7.3,33.5,51.5,11.8,97.7C1033.5-20.2,999.2,0.9,960.6,1.5z"/>
			<path class="st2" d="M1001.5-107.5c1.4,10.8,1.9,26.7-2.6,44.9c-0.9,3.8-4.8,18.7-15.3,35.9c-7.8,12.8-16.4,22.1-23,28.3
				c3.1-3.4,16-18.3,16.1-41.3c0-23.6-13.5-38.8-16.6-42.1c-0.5-9.7-2-22-6.2-35.7c-6.1-20.1-15.5-35.2-22.7-44.9
				c11.4,3.6,29.9,11.2,47.6,27.4C989.4-125.4,996.7-115.4,1001.5-107.5z"/>
		</g>
		<path class="st2" d="M954.4,4.7c-14.8,3.6-28.9-13.9-32.1-17.9c-17-21-13.4-47.6-12-55.3c3.1-17.3,11.6-29.3,16.5-35.2
			c7.2,2.2,21.7,7.8,33.4,21.8c1.4,1.7,22.1,27.1,14.6,57.5C973.2-18.6,968.3,1.3,954.4,4.7z"/>
		<path class="st2" d="M1072.6-4.5c-14.8,13.4-30.6,16.7-45,20.2c-25.9,6.2-47.7,3.2-59.6,0.6c0.2-1.5,0.5-4.2-0.5-7.3
			c-1.3-4.1-3.9-6.6-5.1-7.5C972.7,0.9,983.7-1,995-4.8c59.8-20,85.8-79.7,92.3-95.9c3.2,5.4,14.4,25.5,9.9,52
			C1093.2-25.3,1079.4-10.7,1072.6-4.5z"/>
		<g>
			<path class="st2" d="M842.2,45.1c19,6.3,34.7,3,49.3,0.4c26.2-4.7,44.9-16.3,54.8-23.4c-0.8-1.2-2.1-3.6-2.5-6.9
				c-0.5-4.3,0.9-7.6,1.6-8.9c-9.6,3.6-20.4,6.3-32.3,7.4C850.3,19.4,802.4-24.7,790-37c-0.8,6.2-2.9,29.1,11.9,51.6
				C814.9,34.3,833.4,42.2,842.2,45.1z"/>
			<path class="st2" d="M863.4,75.3c33.7,3.2,67.5-17.8,82.1-52.4l0,0c-11.2,7.5-30.1,18.1-55.5,22.9c-40.5,7.6-73.1-4-86.6-9.7
				C805.7,39.8,825.8,71.7,863.4,75.3z"/>
		</g>
	</g>
</g>
<g>
	<path class="st3" d="M921.7-203.2c-1.9-4.7-5.7-16.2-3.1-30.7c2.5-13.8,9.4-22.9,12.7-26.8c7.3-6.3,14.8-8.1,18.4-5.3
		c3.2,2.5,2.7,7.9,2.6,8.8c-0.9,10.5-11.9,14-20.2,24.1C927.8-227.6,922.7-218.5,921.7-203.2z"/>
	<path class="st3" d="M895.4-194.6c-0.6-5-2.8-16.9-12.1-28.4c-8.8-10.9-19.3-15.6-24-17.3c-9.4-2-16.9,0-18.7,4.2
		c-1.6,3.7,1.4,8.2,1.9,9c5.8,8.7,17.2,6.6,29.3,11.4C878.4-213,887.2-207.5,895.4-194.6z"/>
	<path class="st3" d="M908.3-195.3c-6.9-18.4-13.2-32.3-17.7-41.8c-3.4-7.1-6.5-13.1-3.9-18.4c3.5-7.4,16.2-10.8,20.6-6.8
		c3.6,3.3,0.6,10.7-1.3,20C903.8-231.7,902.7-216,908.3-195.3z"/>
</g>
<circle class="st1" cx="923.1" cy="-124.5" r="9"/>
<path class="st1" d="M968.4,10.7c0,6.7-5.5,12.2-12.2,12.2c-6.7,0-12.2-5.5-12.2-12.2c0-2.4,0.4-6.6,2.9-7.9c2.2-1.2,3.7,0.8,7.5,0
	c3.9-0.8,4.4-3.3,6.7-3.2C964.6-0.4,968.4,5.3,968.4,10.7z"/>
<g>
	<g>
		<g>
			<g>
				<path class="st2" d="M219.9-621.1c-0.4-4.8-0.4-12.2,2.1-20.7c1.8-6,4.3-10.7,6.5-14.1c-1-1.6-7.2-11.7-3.7-23.7
					c2.3-8.2,7.8-12.8,9.9-14.5c-28.3,8.7-42.5,32.8-37.5,50.5C201.2-629.5,216.4-622.7,219.9-621.1z"/>
				<path class="st2" d="M204.6-605.6c5.8,3.3,11.2,4.7,14.8,5.4c7.6-2.6,10.9-9.8,9-14.8c-1.8-4.8-8-6.1-8.5-6.2
					c-4.8-2.2-12.1-6.3-18.9-13.5c-10.4-11.1-13.8-23.2-15-28.9c-1.7,3.3-7.5,15.4-3.7,30.2C186.9-615.6,201.5-607.3,204.6-605.6z"
					/>
				<path class="st2" d="M195.2-601.5c6.4,5.1,15.2,6.3,22.7,3c0.5-0.5,1-1.1,1.5-1.6c-3.9-0.7-9.1-2.2-14.8-5.4
					c-9.5-5.3-15-12.6-17.6-16.7C185.9-614.4,189-606.5,195.2-601.5z"/>
			</g>
			<path class="st2" d="M228.5-655.9c-4.7,7.3-6.6,14.7-6.9,15.9c-2,7.9-1.9,14.7-1.4,19c0.8,0,3.6,0.3,5.9,2.5
				c3.4,3.2,2.8,7.7,2.7,8.2c0.4-0.3,4.2-3.4,9.1-2.1c3.5,0.9,6.3,3.7,7.2,7.2c0-0.8,0.2-3.8,2.5-6.4c0.5-0.6,1.9-2,4.1-2.7
				c3.6-1.2,6.8,0.2,7.5,0.6c3.1-4.6,10.1-16.2,10.6-32.8c0.5-16.5-5.6-28.5-8.4-33.3C256.1-678.2,238.8-672,228.5-655.9z"/>
			<g>
				<path class="st2" d="M259.2-613.8c2.8-3.9,6.6-10.2,8.8-18.7c1.6-6.1,1.9-11.4,1.8-15.4c1.7-0.8,12-6.2,15.3-18.3
					c2.2-8.2,0-15.1-1-17.6c19.4,22.3,19.1,50.3,5.8,62.8C279.4-611.1,263-613.2,259.2-613.8z"/>
				<path class="st2" d="M264.2-592.5c-6.6-0.2-11.9-1.9-15.3-3.2c-5-6.2-4.2-14.1,0-17.3c4-3.1,9.9-1,10.3-0.8
					c5.2,0.7,13.4,1,22.9-1.6c14.5-4,23.6-12.5,27.5-16.7c-0.2,3.7-1.6,17-12.4,27.7C284.4-591.7,267.7-592.3,264.2-592.5z"/>
				<path class="st2" d="M270-584.1c-8.1,1-16-2.6-20.7-9.4c-0.2-0.7-0.3-1.5-0.5-2.2c3.6,1.4,8.9,2.9,15.3,3.2
					c10.8,0.5,19.2-2.9,23.4-5C284.6-590.2,277.8-585.1,270-584.1z"/>
			</g>
		</g>
		<g>
			<path class="st3" d="M273.7-699.6c0.4-2.1,1.5-7.1,5.7-11.7c3.9-4.4,8.4-6.2,10.5-6.8c4-0.7,7.1,0.3,7.8,2.2
				c0.6,1.6-0.8,3.4-1,3.7c-2.6,3.6-7.4,2.4-12.6,4.2C281.3-707,277.4-704.9,273.7-699.6z"/>
			<path class="st3" d="M262.3-702.3c0.9-2,2.7-6.7,1.9-12.9c-0.8-5.9-3.5-9.8-4.8-11.5c-2.9-2.8-6.1-3.7-7.7-2.6
				c-1.4,1-1.3,3.3-1.3,3.6c0.2,4.4,4.7,6.1,8,10.6C260.3-712.7,262.2-708.8,262.3-702.3z"/>
			<path class="st3" d="M267.1-699.7c1.6-8.1,2.4-14.5,2.9-18.9c0.3-3.3,0.6-6.1,2.6-7.5c2.9-1.9,8.2-0.3,8.9,2.1
				c0.6,2-2.1,4-4.9,6.9C273.5-713.8,269.7-708.4,267.1-699.7z"/>
		</g>
		<circle class="st1" cx="235.9" cy="-603.3" r="9.4"/>
		<circle class="st1" cx="264.1" cy="-689.4" r="5"/>
	</g>
	<path class="st1" d="M-782.2-581c1.2-3.2,3.4-5.5,6.4-6.8c3.1-1.3,6.7-1.9,11-1.9c1.9,0,3.8,0.1,5.8,0.3c2,0.2,4,0.5,6.3,0.8
		c4.2-6.4,8.6-12.7,13.1-18.9c4.5-6.3,8.8-12.1,13-17.5c4.2-5.4,8.1-10.2,11.8-14.5c3.7-4.2,6.8-7.6,9.4-10c3.2-3.1,5.9-4.7,8-4.7
		c2.3,0,5.3,1.8,8.9,5.4c-1.1,0.9-2.5,3.3-4.3,7.2c-1.7,3.9-3.6,8.7-5.5,14.5c-2,5.8-3.9,12.1-5.8,19.1c-1.9,7-3.6,14-5.2,21.1
		c-1.6,7.1-2.8,13.9-3.9,20.4c-1,6.5-1.5,12.3-1.5,17.2c0,4.2,0.5,7.5,1.4,9.9c0.9,2.3,2.5,3.5,4.8,3.5c2.9,0,6.2-2,9.9-6
		c3.7-4,7.7-10.3,12.1-18.8l1.7,1.7c-1.7,4.5-3.6,8.6-5.8,12.3c-2.2,3.7-4.5,7-7,9.6c-2.5,2.7-5.1,4.8-7.9,6.3
		c-2.7,1.5-5.5,2.3-8.3,2.3c-4.7,0-8-2-10-6.1c-2-4.1-3-9.5-3-16.3c0-7.1,0.9-15.5,2.8-25c-5-0.8-9.5-1.4-13.6-1.9
		c-4-0.5-7.8-1-11.2-1.4c-5.4,9.8-10.5,19.8-15.4,30.1c-4.9,10.2-9.5,20.3-13.7,30.2c-2.6-1.5-4.2-3-4.8-4.6c-0.6-1.6-0.9-3-0.9-4.1
		c0-2.3,0.7-5.3,2-9c1.3-3.6,3.2-7.7,5.4-12.3c2.3-4.6,5-9.5,8-14.8c3.1-5.3,6.4-10.7,10-16.3c-4.1-0.3-7.7-0.6-10.6-0.7
		c-2.9-0.1-5.4-0.2-7.5-0.2H-782.2z M-702.8-643.7c-2.6,1.6-5.5,4.1-8.7,7.6c-3.2,3.5-6.6,7.7-10.2,12.6
		c-3.6,4.9-7.3,10.5-11.1,16.7c-3.9,6.2-7.7,12.8-11.6,19.7c3.8,0.9,7.5,1.8,11.2,2.7c3.7,0.9,7.1,1.7,10.4,2.5
		c1.2-5.5,2.7-11.1,4.3-16.7c1.6-5.7,3.3-11.2,5-16.7c1.7-5.4,3.5-10.5,5.4-15.3C-706.3-635.4-704.5-639.8-702.8-643.7z"/>
	<path class="st1" d="M-696.1-534.8c0-0.4,0.6-2.2,1.8-5.2c1.2-3,2.6-6.6,4-10.7c1.4-4.1,2.8-8.5,4.1-13c1.3-4.5,1.9-8.6,1.9-12.3
		c0.7-0.8,1.7-1.6,3.2-2.3c1.4-0.8,3-1.2,4.5-1.2c3,0,4.5,1.5,4.5,4.4c0,1.8-0.5,4.7-1.5,8.9c-1,4.1-2.3,8.5-3.9,13.2
		c2.2-3.4,4.7-6.8,7.4-10.3c2.7-3.5,5.5-6.7,8.5-9.5c3-2.8,6.1-5.2,9.3-7c3.2-1.8,6.4-2.7,9.6-2.7c2.1,0,4,0.4,5.5,1.3
		c1.6,0.8,2.8,2,3.9,3.4c1,1.5,1.8,3.1,2.3,4.9c0.5,1.8,0.8,3.6,0.8,5.5c0,2.6-0.4,5-1.1,7.4c-0.7,2.3-1.5,4.6-2.3,6.7
		c-0.8,2.1-1.6,4.2-2.3,6.3c-0.7,2.1-1.1,4.1-1.1,6.1c0,2.3,0.5,4,1.4,4.9c0.9,0.9,2.1,1.4,3.6,1.4c2.1,0,4.2-0.8,6.4-2.3
		c2.1-1.6,4.2-3.6,6.2-6.1c2-2.5,3.9-5.3,5.8-8.4c1.8-3.1,3.5-6.2,5.1-9.3l1.8,2.2c-1.8,4.1-3.7,7.9-5.8,11.4
		c-2.1,3.5-4.3,6.4-6.7,9c-2.4,2.5-5,4.5-7.7,5.9c-2.7,1.4-5.7,2.1-8.8,2.1c-3.9,0-6.8-1-8.8-3c-2-2-2.9-4.6-2.9-7.7
		c0-1.7,0.3-3.5,0.8-5.4c0.5-1.9,1.1-3.9,1.7-5.9c0.6-2,1.2-4,1.7-6c0.5-2,0.8-4,0.8-6c0-3.1-0.6-5.3-1.9-6.4
		c-1.3-1.2-2.9-1.8-4.8-1.8c-3.5,0-7,1.5-10.6,4.4c-3.6,2.9-7,6.5-10.4,10.8c-3.4,4.3-6.5,8.8-9.5,13.6c-3,4.7-5.5,9-7.6,12.6
		c-1.8,0-3.5-0.3-5.1-0.9C-694-532.7-695.2-533.6-696.1-534.8z"/>
	<path class="st1" d="M-617.9-534.8c0-0.4,0.6-2.2,1.8-5.2c1.2-3,2.6-6.6,4-10.7c1.4-4.1,2.8-8.5,4.1-13c1.3-4.5,1.9-8.6,1.9-12.3
		c0.7-0.8,1.7-1.6,3.2-2.3c1.4-0.8,3-1.2,4.5-1.2c3,0,4.5,1.5,4.5,4.4c0,1.8-0.5,4.7-1.5,8.9c-1,4.1-2.3,8.5-3.9,13.2
		c2.2-3.4,4.7-6.8,7.4-10.3c2.7-3.5,5.5-6.7,8.5-9.5c3-2.8,6.1-5.2,9.3-7c3.2-1.8,6.4-2.7,9.6-2.7c2.1,0,4,0.4,5.5,1.3
		c1.6,0.8,2.8,2,3.9,3.4c1,1.5,1.8,3.1,2.3,4.9c0.5,1.8,0.8,3.6,0.8,5.5c0,2.6-0.4,5-1.1,7.4c-0.7,2.3-1.5,4.6-2.3,6.7
		c-0.8,2.1-1.6,4.2-2.3,6.3c-0.7,2.1-1.1,4.1-1.1,6.1c0,2.3,0.5,4,1.4,4.9c0.9,0.9,2.1,1.4,3.6,1.4c2.1,0,4.2-0.8,6.4-2.3
		c2.1-1.6,4.2-3.6,6.2-6.1c2-2.5,3.9-5.3,5.8-8.4c1.8-3.1,3.5-6.2,5.1-9.3l1.8,2.2c-1.8,4.1-3.7,7.9-5.8,11.4
		c-2.1,3.5-4.3,6.4-6.7,9c-2.4,2.5-5,4.5-7.7,5.9c-2.7,1.4-5.7,2.1-8.8,2.1c-3.9,0-6.8-1-8.8-3c-2-2-2.9-4.6-2.9-7.7
		c0-1.7,0.3-3.5,0.8-5.4c0.5-1.9,1.1-3.9,1.7-5.9c0.6-2,1.2-4,1.7-6c0.5-2,0.8-4,0.8-6c0-3.1-0.6-5.3-1.9-6.4
		c-1.3-1.2-2.9-1.8-4.8-1.8c-3.5,0-7,1.5-10.6,4.4c-3.6,2.9-7,6.5-10.4,10.8c-3.4,4.3-6.5,8.8-9.5,13.6c-3,4.7-5.5,9-7.6,12.6
		c-1.8,0-3.5-0.3-5.1-0.9C-615.7-532.7-617-533.6-617.9-534.8z"/>
	<path class="st1" d="M-486.4-569.1c0.4,0.1,1.1,0.3,1.8,0.5c0.8,0.2,1.5,0.5,2.3,0.8c0.7,0.3,1.3,0.7,1.8,1.2
		c0.5,0.4,0.8,1,0.8,1.7c0,1-0.5,2.4-1.5,4.2c-1,1.8-2.1,3.8-3.4,5.9c-1.2,2.2-2.3,4.4-3.4,6.7c-1,2.3-1.5,4.4-1.5,6.4
		c0,1.7,0.4,3.3,1.3,4.9c0.9,1.6,2.3,2.4,4.4,2.4c3,0,7-2.2,11.9-6.5c4.9-4.4,9.9-11,14.9-19.9l1.7,1.7c-1.8,4.6-4,8.7-6.5,12.5
		c-2.6,3.7-5.3,7-8.3,9.6c-3,2.7-6,4.7-9.1,6.2c-3.1,1.4-6.2,2.2-9.2,2.2c-4.1,0-7.2-1.2-9.1-3.7c-2-2.5-2.9-5.1-2.9-8
		c0-1.3,0.2-3,0.5-4.9c-4.9,6.5-9.3,11.3-13.2,14.6c-3.9,3.2-7.9,4.9-12.1,4.9c-3.6,0-6.5-1.1-8.9-3.4c-2.3-2.3-3.5-5.8-3.5-10.5
		c0-3.4,0.6-6.9,1.9-10.7c1.3-3.8,3-7.6,5.3-11.5c2.2-3.9,4.9-7.5,7.9-11.1c3-3.5,6.2-6.6,9.6-9.3c3.4-2.7,7-4.8,10.6-6.4
		c3.7-1.6,7.4-2.4,11.1-2.4c4.4,0,8,1.1,10.9,3.4c2.9,2.3,4.4,5.3,4.4,9.1c0,2.8-0.8,4.7-2.3,5.7c-1.5,1-3.5,1.5-5.9,1.5
		c0.6-2,0.8-4,0.8-5.9c0-2.6-0.6-4.8-1.8-6.6c-1.2-1.8-3.4-2.8-6.4-2.8c-2.7,0-5.4,0.8-8,2.3c-2.7,1.6-5.3,3.7-7.9,6.3
		c-2.6,2.6-5,5.6-7.2,9c-2.2,3.4-4.2,6.8-5.9,10.3c-1.7,3.5-3.1,7-4,10.4c-0.9,3.4-1.4,6.4-1.4,9.1c0,4.4,1.5,6.5,4.5,6.5
		c2.6,0,5.5-1.3,8.7-4c3.2-2.7,6.5-5.9,9.7-9.7c3.2-3.8,6.3-7.8,9.3-12C-490.9-562.5-488.4-566.1-486.4-569.1z"/>
	<path class="st1" d="M-405-639.5c0.2-2.8,1.4-5.1,3.5-7c2.1-1.9,5-3.4,8.5-4.5c3.6-1.1,7.8-1.9,12.7-2.4c4.9-0.5,10.3-0.8,16.1-0.8
		c5.7,0,11,0.2,15.8,0.6c4.9,0.4,9.4,0.8,13.7,1.3c4.2,0.4,8.4,0.9,12.4,1.3c4,0.4,8,0.6,12.1,0.6c-3.9,3.5-8.3,5.6-13.1,6.5
		c-4.9,0.9-10,1.3-15.5,1.3c-1.9,0-3.9,0-5.9-0.1c-2-0.1-4-0.1-6-0.1c-3.6,9-7.7,20.3-12.3,33.8c-4.6,13.5-9.3,28.9-14,46.1
		c-1.2,4.5-2.3,8.5-3.4,12.2c-1,3.7-1.9,7.1-2.7,10.4c-0.8,3.2-1.4,6.3-1.8,9.1c-0.4,2.8-0.6,5.7-0.6,8.5c0,0.6,0,1.2,0,1.8
		c0,0.7,0.1,1.3,0.2,1.8c-5,0-8.5-1.1-10.4-3.3c-1.9-2.2-2.8-5.1-2.8-8.6c0-3.2,0.7-7.1,2-11.6c1.3-4.5,2.7-8.8,4.2-12.9
		c1.9-5.5,4.2-11.9,6.9-19.3c2.7-7.4,5.6-15.1,8.6-23c3.1-7.9,6.2-15.8,9.4-23.7c3.2-7.9,6.3-15,9.3-21.4
		c-5.8,0.1-10.8,0.2-15.1,0.3c-4.2,0.1-8.1,0.3-11.6,0.5c-3.5,0.2-6.8,0.5-10,0.9C-397.9-640.7-401.3-640.2-405-639.5z"/>
	<path class="st1" d="M-308.5-557.4c1.2,0,3-0.3,5.4-0.9c2.4-0.6,4.8-1.6,7.1-2.8c2.3-1.3,4.4-2.9,6.2-4.9c1.8-2,2.7-4.5,2.7-7.4
		c0-2.3-0.8-4.2-2.5-5.5c-1.7-1.3-3.6-2-5.9-2c-3.4,0-6.4,1.1-9.2,3.4c-2.8,2.3-5.4,5.2-7.8,8.6c-2.4,3.5-4.6,7.3-6.4,11.4
		c-1.9,4.1-3.5,8-4.9,11.6c-1.3,3.6-2.5,6.8-3.4,9.5c-0.9,2.7-1.5,4.4-1.8,4.9c-0.6,1-1.4,1.8-2.5,2.3c-1.1,0.5-2.2,0.8-3.2,0.8
		c-1.5,0-2.6-0.4-3.4-1.3c-0.8-0.9-1.4-2.1-1.8-3.6c-0.4-1.5-0.6-3.2-0.7-5.1c-0.1-1.9-0.1-3.8-0.1-5.7c0-5.8,1-12.5,2.9-20.2
		c2-7.6,4.5-15.5,7.6-23.6c3.1-8.1,6.6-16.1,10.4-23.9c3.8-7.8,7.6-14.8,11.4-20.9c3.8-6.1,7.3-11.1,10.6-14.8
		c3.2-3.7,5.9-5.6,7.9-5.6c1.6,0,2.8,1.1,3.8,3.2c0.9,2.1,1.4,4.7,1.4,7.7c0,3.9-0.9,8.2-2.6,12.9c-1.7,4.7-4.1,9.4-7.1,14.2
		c-3,4.7-6.6,9.3-10.8,13.6c-4.2,4.3-8.7,8-13.7,11c-3.7,9-6.4,17.8-8.3,26.4c-1.8,8.5-2.8,15.7-2.8,21.5c1.8-4.5,4-9.4,6.5-14.8
		c2.6-5.4,5.4-10.5,8.6-15.2c3.2-4.7,6.6-8.7,10.4-12c3.7-3.2,7.7-4.9,12-4.9c4.1,0,7.6,1.5,10.6,4.4c2.9,2.9,4.4,6.4,4.4,10.6
		c0,3.6-0.9,6.6-2.8,9.1c-1.8,2.5-4,4.6-6.6,6.1c-2.6,1.6-5.2,2.7-7.9,3.4c-2.7,0.7-4.9,1-6.5,1c0.1,0.9,0.4,2.5,1,4.9
		c0.6,2.4,1.4,4.8,2.4,7.3c1.1,2.5,2.4,4.6,3.9,6.5c1.6,1.9,3.5,2.8,5.7,2.8c2.3,0,4.6-0.7,6.9-2.1c2.2-1.4,4.4-3.3,6.5-5.8
		c2.1-2.5,4.1-5.4,6-8.7c1.9-3.3,3.7-6.9,5.4-10.7l1.7,1.7c-1.2,4.1-2.9,8.1-5.1,12c-2.2,3.9-4.6,7.3-7.3,10.2
		c-2.7,3-5.5,5.3-8.5,7.1c-3,1.8-6,2.7-8.9,2.7c-3.2,0-5.9-1.1-8.1-3.3c-2.2-2.2-3.9-4.8-5.3-8c-1.3-3.1-2.3-6.4-2.8-9.9
		C-308.2-551.8-308.5-554.8-308.5-557.4z M-290.8-639.7c-0.9,0-2.2,1.1-4,3.4c-1.8,2.3-3.9,5.4-6.2,9.2c-2.3,3.9-4.8,8.3-7.4,13.5
		c-2.6,5.1-5.1,10.5-7.5,16.1c3.8-3.1,7.3-6.6,10.5-10.4c3.2-3.8,5.9-7.6,8.1-11.4c2.2-3.8,4-7.4,5.2-10.7c1.2-3.4,1.8-6.1,1.8-8.2
		C-290.3-639.2-290.4-639.7-290.8-639.7z"/>
	<path class="st1" d="M-219.4-569.1c0.4,0.1,1.1,0.3,1.8,0.5c0.8,0.2,1.5,0.5,2.3,0.8c0.7,0.3,1.3,0.7,1.8,1.2
		c0.5,0.4,0.8,1,0.8,1.7c0,1-0.5,2.4-1.5,4.2c-1,1.8-2.1,3.8-3.4,5.9c-1.2,2.2-2.3,4.4-3.4,6.7c-1,2.3-1.5,4.4-1.5,6.4
		c0,1.7,0.4,3.3,1.3,4.9c0.9,1.6,2.3,2.4,4.4,2.4c3,0,7-2.2,11.9-6.5c4.9-4.4,9.9-11,14.9-19.9l1.7,1.7c-1.8,4.6-4,8.7-6.5,12.5
		c-2.6,3.7-5.3,7-8.3,9.6c-3,2.7-6,4.7-9.1,6.2c-3.1,1.4-6.2,2.2-9.2,2.2c-4.1,0-7.2-1.2-9.1-3.7c-2-2.5-2.9-5.1-2.9-8
		c0-1.3,0.2-3,0.5-4.9c-4.9,6.5-9.3,11.3-13.2,14.6c-3.9,3.2-7.9,4.9-12.1,4.9c-3.6,0-6.5-1.1-8.9-3.4c-2.3-2.3-3.5-5.8-3.5-10.5
		c0-3.4,0.6-6.9,1.9-10.7c1.3-3.8,3-7.6,5.3-11.5c2.2-3.9,4.9-7.5,7.9-11.1c3-3.5,6.2-6.6,9.6-9.3c3.4-2.7,7-4.8,10.6-6.4
		c3.7-1.6,7.4-2.4,11.1-2.4c4.4,0,8,1.1,10.9,3.4c2.9,2.3,4.4,5.3,4.4,9.1c0,2.8-0.8,4.7-2.3,5.7c-1.5,1-3.5,1.5-5.9,1.5
		c0.6-2,0.8-4,0.8-5.9c0-2.6-0.6-4.8-1.8-6.6c-1.2-1.8-3.4-2.8-6.4-2.8c-2.7,0-5.4,0.8-8,2.3c-2.7,1.6-5.3,3.7-7.9,6.3
		c-2.6,2.6-5,5.6-7.2,9c-2.2,3.4-4.2,6.8-5.9,10.3c-1.7,3.5-3.1,7-4,10.4c-0.9,3.4-1.4,6.4-1.4,9.1c0,4.4,1.5,6.5,4.5,6.5
		c2.6,0,5.5-1.3,8.7-4c3.2-2.7,6.5-5.9,9.7-9.7c3.2-3.8,6.3-7.8,9.3-12C-223.9-562.5-221.4-566.1-219.4-569.1z"/>
	<path class="st1" d="M-157.3-590.2c2.3,0,4.3,0.4,5.8,1.1c1.5,0.7,2.7,1.7,3.6,2.8c0.9,1.2,1.5,2.5,1.9,4c0.4,1.5,0.6,3,0.6,4.4
		c0,3.2-0.8,6.1-2.3,8.5c-1.5,2.5-3.5,3.7-6.1,3.7c-1.9,0-3.5-0.8-4.9-2.5c1.7-0.9,3.1-2.7,4.4-5.4c1.2-2.7,1.8-5.3,1.8-7.9
		c0-1.3-0.3-2.4-0.8-3.1c-0.5-0.7-1.5-1.1-2.9-1.1c-3,0-6.1,1.4-9.4,4.1c-3.2,2.7-6.2,6.2-8.9,10.3c-2.7,4.1-4.9,8.6-6.6,13.3
		c-1.7,4.7-2.6,9.2-2.6,13.3c0,1.7,0.2,3.4,0.6,5c0.4,1.7,1,3.2,1.9,4.5c0.9,1.3,2.1,2.4,3.8,3.2c1.6,0.8,3.6,1.2,5.9,1.2
		c3.4,0,6.7-0.7,10.1-2.1c3.4-1.4,6.7-3.4,9.9-6c3.2-2.6,6.1-5.8,8.8-9.5c2.7-3.7,4.9-8,6.7-12.6l2.2,1.7c-1.9,5-4.4,9.7-7.5,14
		c-3.1,4.3-6.4,8-10.1,11.1c-3.7,3.1-7.6,5.6-11.7,7.3c-4.1,1.7-8.2,2.6-12.2,2.6c-5.4,0-9.8-1.8-13.4-5.3
		c-3.6-3.5-5.4-8.9-5.4-16.2c0-5.6,1.1-11.1,3.3-16.4c2.2-5.4,5.1-10.1,8.6-14.3c3.5-4.2,7.5-7.5,11.8-10
		C-165.8-589-161.5-590.2-157.3-590.2z"/>
	<path class="st1" d="M-97.5-540.2c0-1.8,0.3-3.7,0.8-5.8c0.6-2.1,1.1-4.2,1.8-6.4c0.6-2.2,1.2-4.5,1.8-6.7c0.6-2.2,0.8-4.4,0.8-6.4
		c0-2.9-0.6-5-1.8-6.2c-1.2-1.2-2.7-1.8-4.5-1.8c-2.8,0-5.3,1.1-7.5,3.4c-2.2,2.3-4.3,5.1-6.1,8.5c-1.8,3.4-3.5,7.1-5.1,11.1
		c-1.6,4-3.1,7.7-4.6,11.1c-1.5,3.4-3,6.3-4.4,8.5c-1.5,2.3-3,3.4-4.5,3.4c-1,0-2-0.5-2.8-1.5c-0.9-1-1.6-2.3-2.2-3.9
		c-0.6-1.6-1-3.5-1.3-5.5c-0.3-2.1-0.5-4.2-0.5-6.4c0-5.4,0.9-11.8,2.7-19.2c1.8-7.4,4.1-15.2,7-23.2c2.9-8,6.2-16,9.9-23.9
		c3.7-7.9,7.4-15,11.1-21.3c3.7-6.3,7.2-11.4,10.6-15.2c3.4-3.9,6.3-5.8,8.8-5.8c1,0,1.9,0.3,2.6,1c0.7,0.7,1.3,1.5,1.7,2.6
		c0.4,1.1,0.7,2.2,0.9,3.4c0.2,1.2,0.3,2.4,0.3,3.5c0,2.6-0.5,5.7-1.5,9.3c-1,3.6-2.4,7.5-4.1,11.6c-1.7,4.1-3.8,8.2-6.2,12.5
		c-2.4,4.2-5,8.3-7.9,12.1c-2.8,3.9-5.9,7.4-9.1,10.6c-3.2,3.2-6.5,5.8-9.7,7.8c-1,2.5-1.9,5.1-2.7,8c-0.8,2.9-1.4,5.8-1.9,8.8
		c-0.5,3-0.9,5.8-1.2,8.6c-0.3,2.8-0.4,5.3-0.4,7.5c0,1.2,0,2.3,0.1,3.2c0.1,0.9,0.1,1.7,0.3,2.5c2-5.7,4.2-11.2,6.5-16.4
		c2.3-5.2,4.9-9.9,7.8-13.9c2.8-4,5.9-7.2,9.2-9.5c3.3-2.3,6.8-3.5,10.5-3.5c2.3,0,4.3,0.4,5.9,1.3c1.6,0.9,2.9,2,3.9,3.4
		c1,1.4,1.7,3,2.2,4.9c0.4,1.8,0.7,3.7,0.7,5.4c0,2.6-0.4,5.1-1.1,7.6c-0.7,2.5-1.6,4.9-2.5,7.3c-1,2.3-1.8,4.6-2.5,6.9
		c-0.7,2.2-1.1,4.4-1.1,6.4c0,2.2,0.5,3.9,1.4,4.9c0.9,1,2.1,1.5,3.6,1.5c1.9,0,4-0.7,6.4-2.2c2.3-1.5,4.7-3.4,7-5.8
		c2.3-2.4,4.6-5.2,6.9-8.5c2.2-3.2,4.2-6.7,5.9-10.4l2.2,2c-1.8,4.1-3.9,8-6.2,11.5c-2.3,3.5-4.9,6.6-7.7,9.2
		c-2.8,2.6-5.7,4.7-8.8,6.2c-3.1,1.5-6.2,2.3-9.5,2.3c-3.9,0-6.8-1-8.7-3C-96.5-534.6-97.5-537.1-97.5-540.2z M-88.6-639.7
		c-0.9,0-2.5,1.5-4.9,4.6c-2.4,3.1-5.1,7.1-8.1,12.2c-3,5.1-6.1,10.9-9.1,17.4c-3.1,6.5-5.7,13.2-7.8,20c3.8-3.1,7.5-7.2,11.2-12.3
		c3.7-5.1,7-10.3,9.9-15.6c2.9-5.3,5.2-10.3,7-14.9c1.7-4.6,2.6-8,2.6-10.1C-87.9-639.2-88.2-639.7-88.6-639.7z"/>
	<path class="st1" d="M-8.4-583.7c0,4.2-1.3,8.2-3.8,12c-2.5,3.7-5.8,7.1-9.8,10c-4,2.9-8.5,5.3-13.4,7.1c-4.9,1.8-9.8,3-14.6,3.4
		c-0.2,1.1-0.4,2.2-0.5,3.2c-0.1,1-0.2,2-0.2,2.8c0,1.7,0.2,3.4,0.6,5c0.4,1.7,1.1,3.2,2.1,4.5c1,1.3,2.4,2.4,4.1,3.3
		c1.7,0.8,3.9,1.3,6.4,1.3c3.6,0,7.1-0.8,10.7-2.3c3.6-1.6,7-3.7,10.2-6.4c3.2-2.7,6.3-5.9,9.1-9.5c2.8-3.6,5.3-7.4,7.5-11.4l2,1.5
		c-2.2,5-5,9.6-8.2,13.7c-3.2,4.1-6.7,7.5-10.5,10.4c-3.7,2.8-7.7,5.1-11.9,6.6c-4.2,1.6-8.3,2.3-12.5,2.3c-6.8,0-11.9-1.9-15.3-5.6
		c-3.4-3.7-5.1-8.3-5.1-13.8c0-3.4,0.6-6.9,1.8-10.6c1.2-3.7,2.8-7.3,4.9-10.9c2.1-3.6,4.5-7,7.2-10.2c2.7-3.2,5.7-6.1,8.9-8.5
		c3.2-2.5,6.4-4.4,9.8-5.9c3.4-1.5,6.7-2.2,10.1-2.2c2.6,0,4.9,0.7,7.1,2C-9.5-590.6-8.4-587.8-8.4-583.7z M-19.3-588.7
		c-2.7,0-5.5,1-8.5,3.1c-3,2.1-5.9,4.7-8.7,8c-2.8,3.3-5.3,7-7.5,11.1c-2.2,4.1-3.9,8.1-5,12.1c3-1,6.4-2.5,10.2-4.4
		c3.8-2,7.4-4.3,10.9-7c3.5-2.7,6.4-5.6,8.7-8.9c2.3-3.2,3.5-6.6,3.5-10.2c0-1.2-0.2-2.2-0.7-2.8C-16.9-588.4-17.8-588.7-19.3-588.7
		z"/>
	<path class="st1" d="M-9.4-534.8c0-0.4,0.6-2.2,1.8-5.2c1.2-3,2.6-6.6,4-10.7c1.4-4.1,2.8-8.5,4.1-13c1.3-4.5,1.9-8.6,1.9-12.3
		c0.7-0.8,1.7-1.6,3.2-2.3c1.4-0.8,3-1.2,4.5-1.2c3,0,4.5,1.5,4.5,4.4c0,1.8-0.5,4.7-1.5,8.9c-1,4.1-2.3,8.5-3.9,13.2
		c2.2-3.4,4.7-6.8,7.4-10.3c2.7-3.5,5.5-6.7,8.5-9.5c3-2.8,6.1-5.2,9.3-7c3.2-1.8,6.4-2.7,9.6-2.7c2.1,0,4,0.4,5.5,1.3
		c1.6,0.8,2.8,2,3.9,3.4c1,1.5,1.8,3.1,2.3,4.9c0.5,1.8,0.8,3.6,0.8,5.5c0,2.6-0.4,5-1.1,7.4c-0.7,2.3-1.5,4.6-2.3,6.7
		c-0.8,2.1-1.6,4.2-2.3,6.3c-0.7,2.1-1.1,4.1-1.1,6.1c0,2.3,0.5,4,1.4,4.9c0.9,0.9,2.1,1.4,3.6,1.4c2.1,0,4.2-0.8,6.4-2.3
		c2.1-1.6,4.2-3.6,6.2-6.1c2-2.5,3.9-5.3,5.8-8.4c1.8-3.1,3.5-6.2,5.1-9.3l1.8,2.2c-1.8,4.1-3.7,7.9-5.8,11.4
		c-2.1,3.5-4.3,6.4-6.7,9c-2.4,2.5-5,4.5-7.7,5.9c-2.7,1.4-5.7,2.1-8.8,2.1c-3.9,0-6.8-1-8.8-3c-2-2-2.9-4.6-2.9-7.7
		c0-1.7,0.3-3.5,0.8-5.4c0.5-1.9,1.1-3.9,1.7-5.9c0.6-2,1.2-4,1.7-6c0.5-2,0.8-4,0.8-6c0-3.1-0.6-5.3-1.9-6.4
		c-1.3-1.2-2.9-1.8-4.8-1.8c-3.5,0-7,1.5-10.6,4.4c-3.6,2.9-7,6.5-10.4,10.8c-3.4,4.3-6.5,8.8-9.5,13.6c-3,4.7-5.5,9-7.6,12.6
		c-1.8,0-3.5-0.3-5.1-0.9C-7.2-532.7-8.5-533.6-9.4-534.8z"/>
	<path class="st1" d="M107.9-557.4c1.2,0,3-0.3,5.4-0.9c2.4-0.6,4.8-1.6,7.1-2.8c2.3-1.3,4.4-2.9,6.2-4.9c1.8-2,2.7-4.5,2.7-7.4
		c0-2.3-0.8-4.2-2.5-5.5c-1.7-1.3-3.6-2-5.9-2c-3.4,0-6.4,1.1-9.2,3.4c-2.8,2.3-5.4,5.2-7.8,8.6c-2.4,3.5-4.6,7.3-6.4,11.4
		c-1.9,4.1-3.5,8-4.9,11.6c-1.3,3.6-2.5,6.8-3.4,9.5c-0.9,2.7-1.5,4.4-1.8,4.9c-0.6,1-1.4,1.8-2.5,2.3c-1.1,0.5-2.2,0.8-3.2,0.8
		c-1.5,0-2.6-0.4-3.4-1.3c-0.8-0.9-1.4-2.1-1.8-3.6c-0.4-1.5-0.6-3.2-0.7-5.1c-0.1-1.9-0.1-3.8-0.1-5.7c0-5.8,1-12.5,2.9-20.2
		c2-7.6,4.5-15.5,7.6-23.6c3.1-8.1,6.6-16.1,10.4-23.9c3.8-7.8,7.6-14.8,11.4-20.9c3.8-6.1,7.3-11.1,10.6-14.8
		c3.2-3.7,5.9-5.6,7.9-5.6c1.6,0,2.8,1.1,3.8,3.2c0.9,2.1,1.4,4.7,1.4,7.7c0,3.9-0.9,8.2-2.6,12.9c-1.7,4.7-4.1,9.4-7.1,14.2
		c-3,4.7-6.6,9.3-10.8,13.6c-4.2,4.3-8.7,8-13.7,11c-3.7,9-6.4,17.8-8.3,26.4c-1.8,8.5-2.8,15.7-2.8,21.5c1.8-4.5,4-9.4,6.5-14.8
		c2.6-5.4,5.4-10.5,8.6-15.2c3.2-4.7,6.6-8.7,10.4-12c3.7-3.2,7.7-4.9,12-4.9c4.1,0,7.6,1.5,10.6,4.4c2.9,2.9,4.4,6.4,4.4,10.6
		c0,3.6-0.9,6.6-2.8,9.1c-1.8,2.5-4,4.6-6.6,6.1c-2.6,1.6-5.2,2.7-7.9,3.4c-2.7,0.7-4.9,1-6.5,1c0.1,0.9,0.4,2.5,1,4.9
		c0.6,2.4,1.4,4.8,2.4,7.3c1.1,2.5,2.4,4.6,3.9,6.5c1.6,1.9,3.5,2.8,5.7,2.8c2.3,0,4.6-0.7,6.9-2.1c2.2-1.4,4.4-3.3,6.5-5.8
		c2.1-2.5,4.1-5.4,6-8.7c1.9-3.3,3.7-6.9,5.4-10.7l1.7,1.7c-1.2,4.1-2.9,8.1-5.1,12c-2.2,3.9-4.6,7.3-7.3,10.2
		c-2.7,3-5.5,5.3-8.5,7.1c-3,1.8-6,2.7-8.9,2.7c-3.2,0-5.9-1.1-8.1-3.3s-3.9-4.8-5.3-8c-1.3-3.1-2.3-6.4-2.8-9.9
		C108.2-551.8,107.9-554.8,107.9-557.4z M125.6-639.7c-0.9,0-2.2,1.1-4,3.4c-1.8,2.3-3.9,5.4-6.2,9.2c-2.3,3.9-4.8,8.3-7.4,13.5
		c-2.6,5.1-5.1,10.5-7.5,16.1c3.8-3.1,7.3-6.6,10.5-10.4c3.2-3.8,5.9-7.6,8.1-11.4c2.2-3.8,4-7.4,5.2-10.7c1.2-3.4,1.8-6.1,1.8-8.2
		C126.1-639.2,126-639.7,125.6-639.7z"/>
	<path class="st1" d="M195.3-544.2c-3,0-5.7-0.6-8-1.7c-3.9,5-8.1,9.2-12.6,12.6c-4.5,3.4-8.8,5-13.1,5c-4.8,0-8.2-1.5-10.2-4.4
		c-2-3-3-6.6-3-10.8c0-3.5,0.6-7.1,1.7-10.8c1.1-3.7,2.6-7.2,4.4-10.3c1.8-3.1,3.9-5.7,6.2-7.8c2.3-2.1,4.7-3.1,7-3.1
		c1,0,2.2,0.3,3.5,0.8c-1,0.9-2.2,2.6-3.6,5c-1.4,2.5-2.7,5.2-3.9,8.2c-1.2,3-2.3,6-3.1,9c-0.8,3-1.3,5.6-1.3,7.7
		c0,3.4,0.5,5.8,1.6,7.3c1.1,1.5,2.5,2.3,4.4,2.3c2.3,0,5.1-1.3,8.4-3.8c3.2-2.5,6.4-5.7,9.5-9.6c-3.2-2.6-5.7-5.9-7.4-10.1
		c-1.7-4.2-2.5-8.5-2.5-12.8c0-2.8,0.4-5.4,1.1-8c0.7-2.5,1.8-4.7,3.2-6.7c1.4-2,3.1-3.5,5.1-4.7c2-1.2,4.4-1.8,7-1.8
		c4.6,0,7.6,1.2,9.2,3.7c1.6,2.5,2.3,5.5,2.3,9.2c0,4.4-1.1,9.2-3.2,14.5c-2.1,5.3-4.8,10.4-8,15.3c1.2,0.7,2.5,1.2,3.8,1.4
		c1,0.2,1.9,0.2,2.6,0.3c3.9,0,7.7-0.9,7.7-0.9c3.4-1.3,8.4-3.7,13.5-7.7c4-3.1,10.8-8.5,15-18.2c3.4-7.9,3.6-15.2,3.3-19.9
		c0.7,0.2,1.3,0.4,2,0.5c0.6,6.1-0.2,11-1,14.2c-6.1,25.6-33.4,34.5-36.1,35.2C198.1-544.2,195.3-544.2,195.3-544.2z M180.6-571
		c0,3.2,0.5,6.5,1.4,9.8c0.9,3.3,2.4,6.1,4.3,8.3c2.8-4.1,5.1-8.5,7-13c1.8-4.5,2.8-8.8,2.8-12.8c0-3.2-0.5-5.6-1.4-7.1
		c-0.9-1.5-2.2-2.3-3.6-2.3c-1.1,0-2.3,0.4-3.5,1.3c-1.2,0.9-2.3,2.1-3.4,3.6c-1,1.5-1.8,3.3-2.5,5.4
		C180.9-575.7,180.6-573.4,180.6-571z"/>
	<path class="st4" d="M210.2-550.2c2.2-1.7,5.5-4.1,9.6-6.7c7.5-4.8,21.9-13.8,38.1-16.6c18.4-3.2,42.7,1.1,56.4,16.8
		c1.4,1.6,13,15.1,8.2,22.6c-2.4,3.7-9.8,5-15.1,4.4c-4.5-0.5-7.7-2.3-8.7-1.1c-0.9,1.2,0.8,4.2,2.6,6.8"/>
	<path class="st1" d="M277-551.9c0.8,0.2,2.8,0.9,4.6-0.1c2-1.1,2.7-3.6,2.6-5.3c-0.1-3.2-2.9-5.4-4.7-6.7c-7.7-5.8-19.4-5.6-24-5.4
		c7.5,2.5,11.4,6.1,13.5,9C271.4-557.2,272.9-553.2,277-551.9z"/>
	<path class="st1" d="M252.3-557.2c0.5,0,1.9-0.1,2.8-1.1c1-1.1,0.9-2.8,0.4-3.9c-0.8-2-3-2.7-4.4-3.1c-6.1-1.9-13.3,0.8-16.1,2
		c5.2-0.1,8.4,1.3,10.4,2.6C247.6-559.2,249.4-557.1,252.3-557.2z"/>
</g>
<path class="st1" d="M-39,435c-3.2,11.1-6.3,21.9-9.3,32.7c-3,10.7-5.7,20.4-8.1,29c-2.8,0-5.3-0.8-7.6-2.3
	c-2.3-1.5-3.5-3.4-3.5-5.8c0-1.2,0.2-2.6,0.7-4.3c0.5-1.7,1-3.2,1.5-4.6c3.3-10.5,6.5-20.3,9.5-29.4c3-9.1,6-18,9.1-26.6
	c3.1-8.6,6.3-17.2,9.7-25.7c3.4-8.6,7.2-17.5,11.3-26.9c-3.1,0.6-5.9,1.4-8.4,2.4c-2.5,1-4.7,1.9-6.7,2.9c-1.9,1-3.5,1.8-4.7,2.5
	c-1.2,0.7-2.1,1-2.5,1c-0.3,0-0.8-0.2-1.3-0.5c-0.5-0.3-1.1-0.7-1.7-1.1c-0.6-0.4-1.1-0.9-1.4-1.4c-0.4-0.5-0.6-0.9-0.6-1.4
	c2-0.9,4.4-1.8,7.1-2.8c2.7-1,5.6-2,8.7-2.9c3.1-0.9,6.3-1.7,9.7-2.3c3.3-0.6,6.7-0.9,10.1-0.9c4.7,0,9.5,0.6,14.5,1.9
	c4.9,1.3,9.4,3.2,13.4,5.9c4,2.6,7.2,5.9,9.7,9.7c2.5,3.9,3.8,8.4,3.8,13.5c0,5.6-1.3,10.4-3.8,14.4c-2.5,4-5.8,7.4-9.7,10.1
	c-4,2.7-8.4,4.9-13.2,6.6c-4.8,1.7-9.5,3-14.1,3.9c-4.6,0.9-8.7,1.5-12.4,1.8c-3.7,0.3-6.4,0.4-8.1,0.4H-39z M13.1,395.1
	c0-4.3-0.8-8-2.4-11.2c-1.6-3.2-3.8-5.7-6.4-7.7c-2.7-2-5.8-3.5-9.3-4.5c-3.5-1-7.2-1.5-10.9-1.5c-4,7.8-7.8,17.2-11.6,28.1
	c-3.8,10.9-7.3,22.3-10.8,34.2c5.9-0.3,11.9-1.3,18-2.9c6.1-1.6,11.6-3.9,16.6-7c4.9-3.1,9-6.9,12.1-11.4
	C11.6,406.6,13.1,401.3,13.1,395.1z"/>
<path class="st1" d="M48.2,472.5c-2.9,0-5.5-0.5-7.7-1.6c-3.8,4.8-7.8,8.9-12.1,12.1c-4.3,3.2-8.5,4.8-12.6,4.8
	c-4.6,0-7.9-1.4-9.8-4.3c-1.9-2.8-2.9-6.3-2.9-10.4c0-3.3,0.5-6.8,1.6-10.4c1.1-3.6,2.5-6.9,4.2-9.9c1.7-3,3.7-5.5,6-7.5
	c2.3-2,4.5-3,6.8-3c1,0,2.1,0.3,3.4,0.8c-1,0.9-2.1,2.5-3.5,4.8c-1.3,2.4-2.6,5-3.8,7.9c-1.2,2.9-2.2,5.8-3,8.7
	c-0.8,2.9-1.2,5.4-1.2,7.4c0,3.2,0.5,5.6,1.5,7c1,1.4,2.4,2.2,4.3,2.2c2.3,0,4.9-1.2,8-3.6c3.1-2.4,6.2-5.5,9.2-9.3
	c-3.1-2.5-5.5-5.7-7.1-9.7c-1.6-4-2.4-8.1-2.4-12.3c0-2.7,0.3-5.2,1-7.6c0.7-2.4,1.7-4.6,3.1-6.4c1.3-1.9,3-3.4,4.9-4.5
	c1.9-1.1,4.2-1.7,6.8-1.7c4.4,0,7.3,1.2,8.9,3.5c1.5,2.4,2.3,5.3,2.3,8.9c0,4.2-1,8.8-3.1,13.9c-2,5.1-4.6,10-7.7,14.7
	c1.9,1.1,4,1.6,6.1,1.6c4.3,0,8-1.2,11-3.6c3.1-2.4,5.7-5.4,8-9.1c2.3-3.6,4.2-7.6,5.8-12c1.6-4.3,3-8.4,4.2-12.3
	c-1.1-1.1-1.6-2.4-1.6-3.9c0-1.6,0.3-3.1,0.8-4.4c0.5-1.3,1.2-2.5,1.9-3.5c0.7-1,1.5-1.7,2.3-2.3c0.7-0.5,1.3-0.8,1.8-0.8
	c1.2,0,1.9,0.5,2,1.5c0.2,1,0.2,1.8,0.2,2.3c0,0.3-0.1,0.8-0.2,1.4c-0.2,0.6-0.4,1.2-0.6,1.9c-0.3,0.6-0.5,1.2-0.6,1.8
	c-0.2,0.5-0.2,0.9-0.2,1c0,1.5,0.9,2.9,2.6,4.1c1.7,1.2,3.6,2.6,5.6,4.2c2,1.6,3.9,3.4,5.6,5.6c1.7,2.2,2.6,5,2.6,8.4
	c0,2.5-0.4,5-1.3,7.5c-0.9,2.5-1.8,5-2.7,7.3c-1,2.4-1.9,4.6-2.7,6.7c-0.9,2.1-1.3,4-1.3,5.7c0,1.9,0.5,3.2,1.4,3.9
	c1,0.6,2.1,1,3.4,1c2.6,0,5.3-0.8,8-2.4c2.8-1.6,5.4-3.6,8-6c2.5-2.4,4.8-5,6.8-7.8c2-2.8,3.5-5.4,4.5-7.7l2.1,1.6
	c-1.5,3.4-3.5,6.8-5.9,10.2c-2.4,3.4-5.1,6.4-8.1,9c-3,2.6-6.2,4.8-9.5,6.4c-3.3,1.7-6.7,2.5-10.1,2.5c-3.6,0-6.5-1-8.6-2.9
	c-2.1-1.9-3.1-4.5-3.1-7.6c0-2.4,0.5-4.9,1.4-7.5c0.9-2.6,1.9-5.3,3.1-7.9c1.1-2.6,2.1-5.2,3.1-7.7c0.9-2.5,1.4-4.9,1.4-7
	c0-1.7-0.3-3.2-0.8-4.4c-0.5-1.2-1.3-2.3-2.2-3.2c-0.9-0.9-1.9-1.7-3-2.4c-1.1-0.7-2.1-1.4-3.1-2.2c-1.3,4-2.8,8.2-4.5,12.7
	c-1.7,4.5-3.8,8.7-6.4,12.5c-2.5,3.8-5.6,7-9.2,9.5C57.4,471.3,53.2,472.5,48.2,472.5z M34.1,446.8c0,3.1,0.5,6.3,1.4,9.4
	c0.9,3.2,2.3,5.8,4.1,8c2.7-4,4.9-8.1,6.7-12.5c1.8-4.3,2.7-8.4,2.7-12.3c0-3.1-0.5-5.4-1.4-6.8c-0.9-1.4-2.1-2.2-3.5-2.2
	c-1.1,0-2.2,0.4-3.4,1.3c-1.2,0.9-2.3,2-3.2,3.5c-1,1.4-1.8,3.2-2.4,5.1C34.4,442.3,34.1,444.4,34.1,446.8z"/>
<path class="st1" d="M170.2,434.2c-11.8,1.3-21.2,1.9-28.3,1.9h-2.4c-2.5,5.8-4.6,11.6-6.3,17.5c-1.7,5.9-2.6,11.7-2.6,17.5
	c0,4.7,0.7,8,2.1,10c1.4,1.9,3.7,2.9,6.9,2.9c5.6,0,11-2.5,16.4-7.4c5.4-4.9,10.1-11.6,14.2-20.1l2.1,1.6c-1.9,4.5-4.3,8.7-7,12.6
	c-2.7,3.9-5.7,7.3-8.9,10.1c-3.2,2.8-6.7,5.1-10.3,6.7c-3.6,1.6-7.3,2.4-11.1,2.4c-9.5,0-14.3-5.3-14.3-15.9
	c0-4.8,0.9-10.6,2.6-17.5c1.7-6.8,4-13.9,6.8-21.3c-1.1-0.2-2.1-0.4-3.1-0.6c-1-0.2-1.9-0.4-2.7-0.7v-2.9c0.9,0.1,1.9,0.2,3.1,0.3
	c1.2,0.1,2.5,0.2,4,0.3c2.3-5.8,4.7-11.4,7.2-16.8c2.6-5.4,5.1-10.2,7.6-14.5c2.5-4.2,4.9-7.6,7.2-10.1c2.3-2.5,4.3-3.8,5.9-3.8
	c0.9,0,1.6,0.3,2.3,0.9c0.7,0.6,1,1.5,1,2.7c0,1.4-0.7,3.5-2,6.2c-1.3,2.7-3.1,5.9-5.1,9.6c-2.1,3.6-4.4,7.7-6.9,12.2
	c-2.5,4.5-5,9.2-7.3,14.2h6c3.5,0,7.2-0.1,11.1-0.2c3.9-0.1,7.8-0.4,11.9-0.8V434.2z"/>
<path class="st1" d="M223,458.2c-1.4,3.2-3,6-4.7,8.3c-1.8,2.3-3.6,4.2-5.5,5.7c-1.9,1.5-3.8,2.6-5.6,3.3c-1.9,0.7-3.6,1-5.2,1
	c-1.9,0-3.9-0.5-6-1.4c-2.1-1-4.1-2.3-5.9-3.9c0,6.8-0.7,13.5-2.2,20.2c-1.4,6.7-3.4,12.7-5.7,18.1c-2.4,5.4-5,9.7-8,13.1
	c-3,3.4-5.9,5.1-8.9,5.1c-0.9,0-1.8-0.2-2.8-0.6c-1-0.4-2-1.1-2.9-2.1c-0.9-1-1.7-2.4-2.3-4.3c-0.6-1.8-0.9-4.2-0.9-7.2
	c0-4.1,0.6-9.3,1.9-15.8c1.2-6.4,3-13.5,5.1-21.1c2.2-7.6,4.8-15.6,7.7-24.1c2.9-8.4,6.2-16.7,9.7-24.9c3.5-8.2,7.1-15.9,10.9-23.3
	c3.8-7.3,7.6-13.8,11.5-19.4c3.9-5.6,7.7-10,11.4-13.4c3.8-3.3,7.3-5,10.6-5c2.3,0,3.7,0.7,4.4,2.1c0.7,1.4,1,3.1,1,5
	c0,4.6-1.3,9.7-3.9,15.1c-2.6,5.5-5.9,10.9-10,16.4c-4.1,5.5-8.7,10.7-13.8,15.8c-5.1,5-10.2,9.3-15.4,12.9c-0.5,1.3-1,2.6-1.5,3.9
	c-0.5,1.3-1,2.7-1.5,4.1c1.2,0.2,2.1,0.8,2.7,1.9c0.6,1,1.1,2.1,1.3,3.3c0.5,3.6,1.1,7,1.7,10.1c0.6,3.1,1.4,5.7,2.3,8
	c1,2.3,2.2,4,3.8,5.2c1.6,1.2,3.6,1.9,6.2,1.9c3.8,0,6.9-1.3,9.5-4c2.6-2.7,5.4-6.6,8.4-11.7L223,458.2z M185.8,473
	c0-3.3-0.4-6.4-1.3-9.1c-0.9-2.7-2.3-6-4.2-9.7c-2,6-3.9,11.9-5.6,17.7c-1.7,5.8-3.2,11.2-4.4,16.3c-1.2,5.1-2.2,9.7-2.9,13.8
	c-0.7,4.1-1,7.5-1,10.2c0,2.5,0.3,4.4,0.8,5.7c0.5,1.3,1.3,2,2.3,2c1,0,2.1-0.8,3.3-2.3c1.2-1.6,2.5-3.6,3.7-6.1
	c1.2-2.5,2.4-5.4,3.5-8.7c1.1-3.3,2.1-6.7,3-10.1c0.9-3.5,1.6-6.9,2.1-10.4C185.5,478.9,185.8,475.8,185.8,473z M222.2,377.6
	c-2.1,0-4.5,1.3-7,3.9c-2.5,2.6-5.2,6.2-8,10.8c-2.8,4.6-5.6,9.9-8.5,15.9c-2.9,6.1-5.7,12.5-8.4,19.2c5.1-4.8,9.8-9.7,14.1-14.6
	c4.2-4.9,7.8-9.6,10.8-13.9c2.9-4.3,5.2-8.2,6.8-11.6c1.6-3.4,2.4-5.9,2.4-7.5C224.4,378.3,223.7,377.6,222.2,377.6z"/>
<path class="st1" d="M261.1,472.5c-2.9,0-5.5-0.5-7.7-1.6c-3.8,4.8-7.8,8.9-12.1,12.1c-4.3,3.2-8.5,4.8-12.6,4.8
	c-4.6,0-7.9-1.4-9.8-4.3c-1.9-2.8-2.9-6.3-2.9-10.4c0-3.3,0.5-6.8,1.6-10.4c1.1-3.6,2.5-6.9,4.2-9.9c1.7-3,3.7-5.5,6-7.5
	c2.3-2,4.5-3,6.8-3c1,0,2.1,0.3,3.4,0.8c-1,0.9-2.1,2.5-3.5,4.8c-1.3,2.4-2.6,5-3.8,7.9c-1.2,2.9-2.2,5.8-3,8.7
	c-0.8,2.9-1.2,5.4-1.2,7.4c0,3.2,0.5,5.6,1.5,7c1,1.4,2.4,2.2,4.3,2.2c2.3,0,4.9-1.2,8-3.6c3.1-2.4,6.2-5.5,9.2-9.3
	c-3.1-2.5-5.5-5.7-7.1-9.7c-1.6-4-2.4-8.1-2.4-12.3c0-2.7,0.3-5.2,1-7.6c0.7-2.4,1.7-4.6,3.1-6.4c1.3-1.9,3-3.4,4.9-4.5
	c1.9-1.1,4.2-1.7,6.8-1.7c4.4,0,7.3,1.2,8.9,3.5c1.5,2.4,2.3,5.3,2.3,8.9c0,4.2-1,8.8-3.1,13.9c-2,5.1-4.6,10-7.7,14.7
	c1.9,1.1,4,1.6,6.1,1.6c1.3,0,2.7-0.2,4.3-0.6c1.6-0.4,3.1-1,4.7-1.9c1.6-0.9,3.1-2.1,4.6-3.5c1.4-1.4,2.7-3.3,3.6-5.6l1.9,1.6
	c-1.1,2.6-2.4,4.7-4,6.4c-1.6,1.7-3.3,3.1-5.1,4.3c-1.8,1.1-3.7,1.9-5.6,2.4C264.7,472.3,262.8,472.5,261.1,472.5z M247,446.8
	c0,3.1,0.5,6.3,1.4,9.4c0.9,3.2,2.3,5.8,4.1,8c2.7-4,4.9-8.1,6.7-12.5c1.8-4.3,2.7-8.4,2.7-12.3c0-3.1-0.5-5.4-1.4-6.8
	c-0.9-1.4-2.1-2.2-3.5-2.2c-1.1,0-2.2,0.4-3.4,1.3c-1.2,0.9-2.3,2-3.2,3.5c-1,1.4-1.8,3.2-2.4,5.1C247.3,442.3,247,444.4,247,446.8z
	"/>
<path class="st1" d="M332.2,378.7c0,2.4-0.5,5.4-1.5,9.2c-1,3.8-2.5,7.9-4.3,12.3c-1.9,4.5-4.1,9.1-6.8,14.1
	c-2.6,4.9-5.5,9.8-8.7,14.6c-3.2,4.8-6.6,9.3-10.2,13.6c-3.6,4.3-7.4,8-11.3,11.3c-0.6,2.9-1.2,5.7-1.5,8.4
	c-0.4,2.7-0.6,5.3-0.6,7.8c0,8.3,2.4,12.4,7.1,12.4c2.1,0,4.3-0.7,6.4-2.3c2.1-1.5,4.2-3.5,6.2-5.9c2-2.4,3.9-5.2,5.7-8.3
	c1.8-3.1,3.4-6.2,4.8-9.3l2.4,1.3c-4.3,9.2-9,16.5-14,21.7c-5,5.3-10.5,7.9-16.3,7.9c-4.6,0-7.9-1.6-9.9-4.7c-2-3.1-3-7.1-3-11.9
	c0-5.1,1-11.3,3-18.4c2-7.1,4.5-14.6,7.6-22.3c3.1-7.7,6.5-15.4,10.4-22.9c3.9-7.6,7.6-14.3,11.3-20.4c3.7-6,7.1-10.9,10.3-14.6
	c3.2-3.7,5.7-5.6,7.5-5.6c0.9,0,1.6,0.4,2.3,1.2c0.6,0.8,1.2,1.8,1.7,3.1c0.5,1.2,0.8,2.5,1,3.9
	C332.1,376.4,332.2,377.7,332.2,378.7z M326.1,379.9c-0.8,0-1.9,1-3.5,2.9c-1.6,1.9-3.5,4.6-5.6,7.9c-2.1,3.3-4.4,7.2-6.8,11.7
	c-2.5,4.5-4.9,9.3-7.2,14.3c-2.4,5-4.6,10.3-6.7,15.7c-2.1,5.4-3.9,10.7-5.4,15.8c4.6-4.7,9.1-10.3,13.5-16.7
	c4.4-6.4,8.3-12.8,11.7-19.2c3.4-6.4,6.1-12.3,8.1-17.7c2-5.4,3.1-9.5,3.1-12.1c0-1.1-0.1-1.8-0.4-2.1
	C326.6,380,326.3,379.9,326.1,379.9z"/>
<path class="st1" d="M336.9,428.1c1,0,1.8,0.3,2.5,0.9c0.7,0.6,1,1.5,1,2.7c0,1.3-0.9,3.4-2.7,6.4c-1.8,3-3.7,6.3-5.8,10
	c-2.1,3.7-4,7.6-5.7,11.7c-1.7,4.1-2.6,8.1-2.6,11.8c0,3.9,0.6,6.4,1.9,7.7c1.3,1.3,3.3,1.9,6,1.9c1.8,0,3.7-0.4,5.6-1.3
	c1.9-0.9,3.9-2.3,6-4.2c2.1-1.9,4.2-4.5,6.4-7.6c2.2-3.1,4.4-7,6.7-11.6l1.4,1.6c-1.6,4.6-3.6,8.7-5.9,12.3c-2.3,3.6-4.9,6.6-7.6,9
	c-2.8,2.4-5.7,4.2-8.9,5.5c-3.1,1.2-6.2,1.9-9.3,1.9c-4.2,0-7.3-1.3-9.3-3.9c-2-2.6-3.1-5.8-3.1-9.6c0-2,0.3-4.6,1-7.6
	c0.6-3,1.5-6.2,2.7-9.6c1.1-3.4,2.4-6.7,3.9-10.1c1.4-3.3,3-6.3,4.7-9c1.7-2.7,3.5-4.9,5.4-6.5C333.2,429,335.1,428.1,336.9,428.1z
	 M345.4,413.2c-1.8,0-3.4-0.4-4.7-1.3c-1.3-0.9-1.9-2.2-1.9-4c0-1.1,0.4-2.1,1.1-3.1c0.7-1,1.7-1.9,2.8-2.7c1.1-0.8,2.4-1.4,3.8-1.9
	c1.4-0.4,2.7-0.6,4-0.6c1.6,0,2.9,0.4,3.9,1.1c1,0.8,1.4,2,1.4,3.9c0,1-0.3,2-0.9,3.1c-0.6,1.1-1.4,2-2.4,2.8c-1,0.8-2.1,1.5-3.4,2
	C348,412.9,346.7,413.2,345.4,413.2z"/>
<path class="st1" d="M396.9,472.5c-2.9,0-5.5-0.5-7.7-1.6c-3.8,4.8-7.8,8.9-12.1,12.1c-4.3,3.2-8.5,4.8-12.6,4.8
	c-4.6,0-7.9-1.4-9.8-4.3c-1.9-2.8-2.9-6.3-2.9-10.4c0-3.3,0.5-6.8,1.6-10.4c1.1-3.6,2.5-6.9,4.2-9.9c1.7-3,3.7-5.5,6-7.5
	c2.3-2,4.5-3,6.8-3c1,0,2.1,0.3,3.4,0.8c-1,0.9-2.1,2.5-3.5,4.8c-1.3,2.4-2.6,5-3.8,7.9c-1.2,2.9-2.2,5.8-3,8.7
	c-0.8,2.9-1.2,5.4-1.2,7.4c0,3.2,0.5,5.6,1.5,7c1,1.4,2.4,2.2,4.3,2.2c2.3,0,4.9-1.2,8-3.6c3.1-2.4,6.2-5.5,9.2-9.3
	c-3.1-2.5-5.5-5.7-7.1-9.7c-1.6-4-2.4-8.1-2.4-12.3c0-2.7,0.3-5.2,1-7.6c0.7-2.4,1.7-4.6,3.1-6.4c1.3-1.9,3-3.4,4.9-4.5
	c1.9-1.1,4.2-1.7,6.8-1.7c4.4,0,7.3,1.2,8.9,3.5c1.5,2.4,2.3,5.3,2.3,8.9c0,4.2-1,8.8-3.1,13.9c-2,5.1-4.6,10-7.7,14.7
	c1.9,1.1,4,1.6,6.1,1.6c0.7,0,1.3,0,1.8-0.1c1.2-0.1,2-0.3,2.5-0.5c2.6-0.7,6.3-2.3,6.6-2.5c-0.3,1.2-0.6,2.5-0.9,3.7
	c-1.3,0.8-3.2,1.8-5.6,2.4C401.2,472.1,399.3,472.5,396.9,472.5z M382.8,446.8c0,3.1,0.5,6.3,1.4,9.4c0.9,3.2,2.3,5.8,4.1,8
	c2.7-4,4.9-8.1,6.7-12.5c1.8-4.3,2.7-8.4,2.7-12.3c0-3.1-0.5-5.4-1.4-6.8c-0.9-1.4-2.1-2.2-3.5-2.2c-1.1,0-2.2,0.4-3.4,1.3
	c-1.2,0.9-2.3,2-3.2,3.5c-1,1.4-1.8,3.2-2.4,5.1C383.1,442.3,382.8,444.4,382.8,446.8z"/>
<g>
	<path class="st1" d="M502.2,479c0.8,0.6,2.9,2.2,5.4,1.7c2.8-0.5,4.6-3.1,5.2-5.2c1.2-3.8-1.2-7.5-2.7-9.7
		c-6.6-10-20.4-14.6-25.9-16.2c7.8,6,10.8,11.8,12,16.1C497.8,470.4,497.9,475.7,502.2,479z"/>
	<g>
		<path class="st0" d="M458.7,517.3"/>
		<g>
			<g>
				<g>
					<path class="st2" d="M420.8,397.9c-0.4-4.6-0.4-11.7,2-19.9c1.7-5.8,4.1-10.3,6.2-13.6c-1-1.6-6.9-11.2-3.6-22.8
						c2.2-7.8,7.5-12.3,9.6-13.9c-27.2,8.4-40.9,31.5-36,48.6C402.8,389.8,417.4,396.4,420.8,397.9z"/>
					<path class="st2" d="M406.1,412.9c5.6,3.2,10.8,4.5,14.2,5.2c7.3-2.5,10.5-9.4,8.6-14.2c-1.8-4.6-7.7-5.8-8.1-5.9
						c-4.6-2.1-11.6-6-18.2-13c-10-10.6-13.3-22.3-14.4-27.7c-1.6,3.2-7.2,14.8-3.5,29C389,403.2,403.1,411.2,406.1,412.9z"/>
					<path class="st2" d="M397.1,416.7c6.2,4.9,14.6,6,21.8,2.9c0.5-0.5,1-1,1.5-1.6c-3.7-0.7-8.8-2.1-14.2-5.2
						c-9.2-5.1-14.4-12.1-16.9-16C388.1,404.4,391.1,412,397.1,416.7z"/>
				</g>
				<path class="st2" d="M429.1,364.5c-4.5,7-6.4,14.1-6.7,15.3c-2,7.6-1.8,14.1-1.3,18.3c0.8,0,3.4,0.3,5.7,2.4
					c3.2,3.1,2.7,7.4,2.6,7.8c0.4-0.3,4-3.2,8.7-2c3.4,0.9,6,3.5,6.9,7c0-0.8,0.2-3.7,2.4-6.2c0.5-0.5,1.8-1.9,4-2.6
					c3.5-1.2,6.5,0.2,7.2,0.5c3-4.4,9.7-15.6,10.2-31.5c0.5-15.8-5.4-27.4-8.1-32C455.5,343.1,438.9,349,429.1,364.5z"/>
				<g>
					<path class="st2" d="M458.6,404.9c2.7-3.7,6.4-9.8,8.5-18c1.5-5.8,1.8-11,1.7-14.8c1.6-0.8,11.6-5.9,14.7-17.6
						c2.1-7.9,0-14.5-0.9-16.9C501.3,359,501,386,488.1,398C478,407.5,462.2,405.5,458.6,404.9z"/>
					<path class="st2" d="M463.3,425.4c-6.3-0.2-11.4-1.8-14.7-3.1c-4.8-6-4-13.6,0-16.7c3.8-3,9.5-0.9,9.9-0.8c5,0.6,12.9,1,22-1.6
						c13.9-3.8,22.7-12,26.4-16.1c-0.2,3.6-1.5,16.4-11.9,26.6C482.7,426.1,466.7,425.6,463.3,425.4z"/>
					<path class="st2" d="M469,433.5c-7.7,0.9-15.4-2.5-19.9-9c-0.1-0.7-0.3-1.4-0.4-2.1c3.5,1.3,8.5,2.8,14.7,3.1
						c10.4,0.4,18.4-2.8,22.5-4.8C482.9,427.6,476.5,432.6,469,433.5z"/>
				</g>
			</g>
			<g>
				<path class="st3" d="M472.5,322.5c0.4-2,1.5-6.8,5.4-11.3c3.8-4.2,8.1-5.9,10.1-6.6c3.8-0.6,6.8,0.3,7.5,2.1
					c0.6,1.5-0.7,3.3-1,3.6c-2.5,3.4-7.1,2.3-12.1,4.1C479.7,315.4,476.1,317.4,472.5,322.5z"/>
				<path class="st3" d="M461.6,319.9c0.8-1.9,2.6-6.5,1.8-12.4c-0.7-5.6-3.4-9.5-4.6-11.1c-2.8-2.7-5.8-3.6-7.4-2.5
					c-1.3,0.9-1.3,3.2-1.2,3.5c0.2,4.3,4.5,5.9,7.7,10.2C459.6,309.9,461.4,313.7,461.6,319.9z"/>
				<path class="st3" d="M466.1,322.4c1.5-7.8,2.3-14,2.7-18.2c0.3-3.2,0.5-5.9,2.5-7.2c2.8-1.8,7.9-0.3,8.5,2
					c0.5,1.9-2.1,3.8-4.7,6.6C472.3,308.9,468.6,314.1,466.1,322.4z"/>
			</g>
			<circle class="st1" cx="436.2" cy="415" r="9"/>
			<circle class="st1" cx="463.2" cy="332.4" r="4.8"/>
		</g>
		<path class="st1" d="M405.7,467.1C405.7,467.1,405.7,467.1,405.7,467.1c3.3-1.3,8-3.5,13-7.4c3.8-3,10.4-8.2,14.4-17.4
			c3.3-7.6,3.5-14.6,3.2-19.1c0.6,0.2,1.3,0.3,1.9,0.5c0.5,5.9-0.2,10.5-0.9,13.6c-5.3,22.5-33.4,35.3-34.7,33.8
			C402.2,470.6,403.6,467.5,405.7,467.1z"/>
		<path class="st4" d="M411.5,466.1c2.2-1.6,5.3-3.9,9.3-6.4c7.2-4.6,21-13.3,36.6-16c17.7-3,41,1,54.2,16.1
			c1.3,1.5,12.5,14.5,7.9,21.8c-2.3,3.5-9.4,4.8-14.5,4.2c-4.4-0.5-7.4-2.3-8.3-1.1c-0.9,1.1,0.7,4,2.5,6.5"/>
		<path class="st1" d="M475.7,464.4c0.7,0.2,2.7,0.8,4.4-0.1c1.9-1.1,2.6-3.4,2.5-5.1c-0.1-3.1-2.8-5.2-4.5-6.4
			c-7.4-5.6-18.7-5.4-23.1-5.2c7.2,2.4,10.9,5.9,13,8.7C470.3,459.3,471.7,463.1,475.7,464.4z"/>
		<path class="st1" d="M451.9,459.3c0.5,0,1.8-0.1,2.7-1.1c0.9-1.1,0.8-2.7,0.4-3.7c-0.8-1.9-2.9-2.6-4.2-3
			c-5.8-1.8-12.8,0.8-15.5,1.9c5-0.1,8.1,1.2,10,2.5C447.4,457.4,449.1,459.4,451.9,459.3z"/>
	</g>
</g>
<rect x="-2067.4" y="-759" style="fill:none;" width="1.8" height="3.6"/>
<path class="st1" d="M-628.8-160.9c-1.1,1-2.4,1.2-3.7,0.8c-0.5,1.1-0.9,2.2-1.3,3.4c-0.7,2.2-0.8,4.2-0.5,5.9
	c1.4-2.7,2.8-5.4,4.2-8C-629.6-159.5-629.2-160.2-628.8-160.9z"/>
<path class="st1" d="M-561.4-144.1c-4.5,9.2-17.2,33-40.6,45.9c-2.7,1.5-14.3,7.6-29,7.4c-10.6-0.2-13.6-3.4-14.7-4.9
	c-1.8-2.4-2.1-4.9-2.1-10c0-5.8,0.9-11.6,2.6-17.5c1.6-5.5,3.5-10.9,5.7-16.2c-2.1-2.1-3.7-4.8-4.5-7.9c-0.4-1.4-0.5-2.8-0.6-4.2
	c-0.9,2.1-1.8,4.3-2.6,6.4c-1.5-0.1-2.8-0.2-4-0.3c-1.2-0.1-2.2-0.2-3.1-0.3v2.9c0.9,0.3,1.8,0.6,2.7,0.7c1,0.2,2,0.3,3.1,0.6
	c-2.8,7.4-5,14.5-6.8,21.3c-1.7,6.8-2.6,12.6-2.6,17.5c0,2.9,1,8.6,4.4,12.7c9.2,11.4,33.3,4.9,39.3,3.3c3-0.8,16.3-4.6,29.3-15.8
	c9.3-8,14.6-16.5,18.4-22.7c4.5-7.3,7.4-13.8,9.2-18.7C-558.7-144-560.1-144-561.4-144.1z"/>
<path class="st1" d="M-502-92c0.8,0.5,3.1,1.9,5.6,1.3c2.7-0.7,4.4-3.4,4.8-5.6c0.9-3.9-1.8-7.4-3.4-9.5c-7.4-9.4-21.4-13-27-14.1
	c8.2,5.4,11.6,11,13.2,15.1C-507.1-100.1-506.6-94.9-502-92z"/>
<g>
	<g>
		<g>
			<path class="st2" d="M-573.7-167c-0.5-4.6-0.6-11.7,1.7-19.9c1.6-5.8,4-10.4,6-13.7c-1-1.5-7.1-11.1-4-22.7
				c2.1-7.9,7.3-12.5,9.3-14.1c-27,8.8-40.3,32.2-35.2,49.1C-591.9-174.8-577.2-168.4-573.7-167z"/>
			<path class="st2" d="M-588.2-151.8c5.6,3.1,10.8,4.3,14.3,4.9c7.2-2.6,10.3-9.6,8.4-14.4c-1.8-4.5-7.8-5.7-8.2-5.8
				c-4.6-2-11.7-5.8-18.4-12.7c-10.2-10.5-13.6-22.1-14.9-27.5c-1.6,3.2-6.9,14.9-3,29.1C-605.4-161.2-591.2-153.5-588.2-151.8z"/>
			<path class="st2" d="M-597.1-147.8c6.3,4.8,14.7,5.8,21.8,2.5c0.5-0.5,1-1.1,1.4-1.6c-3.7-0.6-8.8-2-14.3-4.9
				c-9.2-5-14.6-11.9-17.2-15.7C-606.3-160-603.2-152.5-597.1-147.8z"/>
		</g>
		<path class="st2" d="M-566-200.6c-4.4,7.1-6.1,14.2-6.4,15.4c-1.8,7.6-1.5,14.1-1,18.3c0.8,0,3.5,0.2,5.7,2.3
			c3.3,3,2.8,7.3,2.8,7.8c0.3-0.3,3.9-3.3,8.7-2.1c3.4,0.8,6.1,3.4,7.1,6.8c0-0.8,0.1-3.7,2.3-6.2c0.5-0.5,1.8-1.9,3.9-2.7
			c3.5-1.2,6.5,0.1,7.3,0.4c2.9-4.4,9.4-15.7,9.7-31.6c0.3-15.8-5.9-27.3-8.6-31.9C-539.9-222.4-556.4-216.2-566-200.6z"/>
		<g>
			<path class="st2" d="M-535.8-160.6c2.6-3.8,6.2-9.9,8.2-18.1c1.4-5.9,1.6-11,1.5-14.9c1.6-0.8,11.5-6.1,14.4-17.8
				c2-7.9-0.2-14.5-1.2-16.9c19,21.1,19.1,48,6.5,60.3C-516.4-158.4-532.2-160.1-535.8-160.6z"/>
			<path class="st2" d="M-530.8-140.2c-6.3-0.1-11.4-1.6-14.7-2.8c-4.9-5.9-4.2-13.5-0.3-16.7c3.8-3,9.5-1.1,9.9-0.9
				c5,0.5,12.9,0.7,22-1.9c13.8-4.1,22.5-12.4,26.2-16.5c-0.2,3.6-1.3,16.4-11.5,26.8C-511.4-139.8-527.4-140.1-530.8-140.2z"/>
			<path class="st2" d="M-525-132.3c-7.7,1.1-15.4-2.3-20-8.7c-0.2-0.7-0.3-1.4-0.5-2.1c3.5,1.3,8.6,2.7,14.7,2.8
				c10.4,0.3,18.4-3.1,22.4-5.2C-511.1-138.3-517.5-133.3-525-132.3z"/>
		</g>
	</g>
	<g>
		<path class="st3" d="M-523.3-243.3c0.3-2,1.4-6.8,5.3-11.4c3.7-4.3,8-6.1,10-6.7c3.8-0.7,6.8,0.2,7.5,2c0.6,1.5-0.7,3.3-0.9,3.6
			c-2.5,3.5-7,2.4-12,4.3C-516.2-250.5-519.8-248.4-523.3-243.3z"/>
		<path class="st3" d="M-534.3-245.7c0.8-1.9,2.5-6.5,1.6-12.4c-0.8-5.6-3.5-9.4-4.8-11c-2.9-2.6-5.9-3.5-7.4-2.4
			c-1.3,1-1.2,3.2-1.2,3.5c0.2,4.3,4.6,5.8,7.9,10C-536.4-255.6-534.5-251.9-534.3-245.7z"/>
		<path class="st3" d="M-529.6-243.3c1.4-7.9,2.1-14,2.4-18.2c0.3-3.2,0.4-5.9,2.4-7.2c2.7-1.9,7.9-0.4,8.6,1.9
			c0.6,1.9-2,3.9-4.6,6.7C-523.7-256.9-527.3-251.7-529.6-243.3z"/>
	</g>
	<circle class="st1" cx="-558.1" cy="-150.2" r="9"/>
	<circle class="st1" cx="-532.4" cy="-233.3" r="4.8"/>
</g>
<path class="st4" d="M-593.5-97.8c2-1.8,5-4.3,8.7-7.1c6.8-5.1,19.9-14.9,35.3-18.8c17.4-4.4,41-2.1,55.3,11.9
	c1.4,1.4,13.6,13.5,9.5,21.1c-2,3.7-9,5.5-14.1,5.3c-4.4-0.1-7.5-1.7-8.4-0.4c-0.8,1.2,1.1,3.9,3,6.3"/>
<path class="st1" d="M-529.6-104.4c0.7,0.2,2.7,0.6,4.4-0.5c1.8-1.2,2.3-3.6,2.1-5.3c-0.4-3.1-3.2-4.9-5-6c-7.8-5-19-4-23.4-3.4
	c7.4,1.8,11.3,5,13.6,7.6C-535.4-109.1-533.7-105.4-529.6-104.4z"/>
<path class="st1" d="M-553.7-107.7c0.5-0.1,1.8-0.2,2.6-1.3c0.9-1.1,0.6-2.8,0.1-3.8c-0.9-1.8-3.1-2.3-4.4-2.6
	c-6-1.4-12.7,1.8-15.3,3.1c5-0.5,8.1,0.6,10.1,1.7C-558.3-109.3-556.5-107.4-553.7-107.7z"/>
<g>
	<path class="st1" d="M-81.9-224.1c0-4.5,1.1-9.3,3.2-14.2c2.1-5,5.2-9.6,9.2-13.9c4-4.3,8.8-7.8,14.5-10.6c5.7-2.8,12-4.2,19-4.2
		c6.2,0,10.6,1.5,13.1,4.6c2.5,3.1,3.8,6.9,3.8,11.5c0,2.9-0.4,6-1.2,9.3c-0.8,3.3-1.8,6.6-3.1,9.7c-1.2,3.2-2.6,6.2-4,9
		c-1.4,2.8-2.8,5.3-4.1,7.3c-1.9-0.4-3.3-1.2-4.1-2.4c-0.8-1.2-1.2-2.7-1.2-4.5c0-2.3,0.5-4.9,1.4-7.8c1-2.9,2.1-6,3.3-9
		c1.2-3.1,2.3-6.1,3.3-9c1-2.9,1.4-5.6,1.4-8c0-2.1-0.6-3.8-1.9-5.1c-1.3-1.2-3.6-1.9-7.1-1.9c-5,0-9.7,1.2-14.1,3.6
		c-4.3,2.4-8.1,5.4-11.3,9c-3.2,3.6-5.6,7.5-7.4,11.6c-1.8,4.1-2.7,7.9-2.7,11.2c0,4,1.2,7.4,3.5,10.2c2.4,2.8,5.3,5.4,8.9,7.8
		c3.6,2.4,7.5,4.6,11.6,6.8c4.1,2.2,8,4.7,11.6,7.6c3.6,2.8,6.6,6.2,8.9,10c2.4,3.8,3.5,8.4,3.5,13.9c0,5.6-1.3,10.5-3.8,14.7
		c-2.5,4.2-5.8,7.8-9.8,10.7c-4,2.9-8.5,5.1-13.5,6.6c-5,1.5-10,2.3-14.9,2.3c-4.4,0-8.6-0.6-12.6-1.8c-4-1.2-7.6-3-10.7-5.3
		c-3.1-2.4-5.6-5.4-7.5-9s-2.8-7.9-2.8-12.7c0-4.2,0.7-7.7,2-10.5c1.3-2.8,3-5,5-6.6c2-1.6,4.2-2.8,6.6-3.5c2.4-0.7,4.7-1,7-1
		c-2.9,3.1-5.1,6.5-6.6,10.3c-1.5,3.8-2.3,7.5-2.3,11.3c0,3,0.5,5.8,1.5,8.5c1,2.7,2.5,5.1,4.5,7.2c2,2.1,4.5,3.8,7.6,5
		c3.1,1.2,6.8,1.9,10.9,1.9c3.6,0,7.2-0.5,10.8-1.5c3.5-1,6.7-2.5,9.6-4.4c2.8-1.9,5.1-4.4,6.9-7.3c1.8-2.9,2.7-6.4,2.7-10.2
		c0-4.6-1.2-8.6-3.6-11.8c-2.4-3.3-5.4-6.2-9.1-8.9c-3.6-2.6-7.6-5.1-11.7-7.5c-4.2-2.4-8.1-4.9-11.7-7.6c-3.6-2.7-6.7-5.7-9.1-9.1
		C-80.7-215.1-81.9-219.2-81.9-224.1z"/>
	<path class="st1" d="M19.5-174c1.2,0,2.9-0.3,5.2-0.9c2.3-0.6,4.6-1.5,6.8-2.7c2.3-1.2,4.2-2.8,6-4.7c1.7-1.9,2.6-4.3,2.6-7.1
		c0-2.3-0.8-4-2.4-5.3c-1.6-1.3-3.5-1.9-5.6-1.9c-3.2,0-6.2,1.1-8.9,3.3c-2.7,2.2-5.2,5-7.5,8.3c-2.3,3.3-4.4,7-6.2,10.9
		c-1.8,4-3.4,7.7-4.7,11.2c-1.3,3.5-2.4,6.5-3.2,9.2c-0.9,2.6-1.4,4.2-1.8,4.7c-0.5,1-1.3,1.7-2.4,2.2c-1.1,0.5-2.1,0.7-3.1,0.7
		c-1.4,0-2.5-0.4-3.2-1.3c-0.8-0.9-1.3-2-1.7-3.5c-0.4-1.4-0.6-3.1-0.6-4.9c-0.1-1.8-0.1-3.6-0.1-5.5c0-5.6,0.9-12,2.8-19.4
		c1.9-7.3,4.3-14.9,7.3-22.7c3-7.8,6.3-15.4,10-22.9c3.6-7.5,7.3-14.2,10.9-20.1c3.6-5.9,7-10.6,10.1-14.2c3.1-3.6,5.6-5.4,7.6-5.4
		c1.5,0,2.7,1,3.6,3.1c0.9,2,1.4,4.5,1.4,7.4c0,3.8-0.8,7.9-2.5,12.4c-1.7,4.5-3.9,9-6.8,13.6c-2.9,4.6-6.4,8.9-10.4,13
		c-4,4.1-8.4,7.6-13.1,10.5c-3.5,8.7-6.2,17.1-8,25.3C-0.1-172.5-1-165.6-1-160c1.7-4.3,3.8-9,6.3-14.2c2.5-5.2,5.2-10.1,8.3-14.6
		c3.1-4.6,6.4-8.4,10-11.5c3.6-3.1,7.4-4.7,11.5-4.7c4,0,7.3,1.4,10.1,4.2c2.8,2.8,4.2,6.2,4.2,10.1c0,3.4-0.9,6.4-2.7,8.8
		c-1.8,2.4-3.9,4.4-6.4,5.9c-2.5,1.5-5,2.6-7.6,3.2c-2.6,0.6-4.7,1-6.3,1c0.1,0.9,0.4,2.4,1,4.7c0.5,2.3,1.3,4.6,2.3,7
		c1,2.4,2.3,4.5,3.8,6.3c1.5,1.8,3.3,2.7,5.5,2.7c2.3,0,4.5-0.7,6.6-2c2.1-1.3,4.2-3.2,6.3-5.6c2-2.4,4-5.1,5.8-8.4
		c1.8-3.2,3.5-6.7,5.1-10.3l1.6,1.6c-1.2,4-2.8,7.8-4.9,11.5c-2.1,3.7-4.4,7-7,9.8c-2.6,2.8-5.3,5.1-8.2,6.8
		c-2.9,1.7-5.7,2.6-8.5,2.6c-3.1,0-5.7-1-7.8-3.1s-3.8-4.6-5.1-7.6c-1.3-3-2.2-6.2-2.7-9.5C19.7-168.7,19.5-171.6,19.5-174z
		 M36.5-253c-0.9,0-2.1,1.1-3.9,3.3c-1.7,2.2-3.7,5.1-6,8.9c-2.3,3.7-4.6,8-7.1,13c-2.5,4.9-4.9,10.1-7.2,15.4c3.6-3,7-6.3,10.1-10
		c3.1-3.6,5.7-7.3,7.8-10.9c2.1-3.6,3.8-7.1,5-10.3c1.2-3.2,1.8-5.8,1.8-7.9C37-252.5,36.8-253,36.5-253z"/>
	<path class="st1" d="M82.4-205.7c1,0,1.8,0.3,2.5,0.9c0.7,0.6,1,1.5,1,2.7c0,1.3-0.9,3.4-2.7,6.4c-1.8,3-3.7,6.3-5.8,10
		c-2.1,3.7-4,7.6-5.7,11.7c-1.7,4.1-2.6,8.1-2.6,11.8c0,3.9,0.6,6.4,1.9,7.7c1.3,1.3,3.3,1.9,6,1.9c1.8,0,3.7-0.4,5.6-1.3
		c1.9-0.9,3.9-2.3,6-4.2c2.1-1.9,4.2-4.5,6.4-7.6c2.2-3.1,4.4-7,6.7-11.6l1.4,1.6c-1.6,4.6-3.6,8.7-5.9,12.3c-2.3,3.6-4.9,6.6-7.6,9
		c-2.8,2.4-5.7,4.2-8.9,5.5c-3.1,1.2-6.2,1.9-9.3,1.9c-4.2,0-7.3-1.3-9.3-3.9c-2-2.6-3.1-5.8-3.1-9.6c0-2,0.3-4.6,1-7.6
		c0.6-3,1.5-6.2,2.7-9.6c1.1-3.4,2.4-6.7,3.9-10.1c1.4-3.3,3-6.3,4.7-9c1.7-2.7,3.5-4.9,5.4-6.5C78.7-204.9,80.6-205.7,82.4-205.7z
		 M90.9-220.7c-1.8,0-3.4-0.4-4.7-1.3c-1.3-0.9-1.9-2.2-1.9-4c0-1.1,0.4-2.1,1.1-3.1c0.7-1,1.7-1.9,2.8-2.7c1.1-0.8,2.4-1.4,3.8-1.9
		c1.4-0.4,2.7-0.6,4-0.6c1.6,0,2.9,0.4,3.9,1.1c1,0.8,1.4,2,1.4,3.9c0,1-0.3,2-0.9,3.1c-0.6,1.1-1.4,2-2.4,2.8c-1,0.8-2.1,1.5-3.4,2
		C93.5-221,92.2-220.7,90.9-220.7z"/>
	<path class="st1" d="M154.8-255.1c0,2.4-0.5,5.4-1.5,9.2c-1,3.8-2.5,7.9-4.3,12.3c-1.9,4.5-4.1,9.1-6.8,14.1
		c-2.6,4.9-5.5,9.8-8.7,14.6c-3.2,4.8-6.6,9.3-10.2,13.6c-3.6,4.3-7.4,8-11.3,11.3c-0.6,2.9-1.2,5.7-1.5,8.4
		c-0.4,2.7-0.6,5.3-0.6,7.8c0,8.3,2.4,12.4,7.1,12.4c1.9,0,3.9-0.6,5.9-1.9c2-1.3,3.9-3,5.8-5.1c1.9-2.1,3.7-4.5,5.4-7.2
		c1.7-2.7,3.3-5.6,4.7-8.4c1.1-5.6,2.7-11.6,4.8-18c2.1-6.4,4.6-12.8,7.4-19.2c2.8-6.4,5.7-12.5,8.9-18.4c3.1-5.9,6.2-11.1,9.2-15.7
		c3-4.6,5.8-8.2,8.4-10.9c2.6-2.7,4.7-4.1,6.3-4.1c0.9,0,1.6,0.4,2.3,1.2c0.6,0.8,1.2,1.8,1.7,3.1c0.5,1.2,0.8,2.5,1,3.9
		c0.2,1.4,0.3,2.6,0.3,3.7c0,3.5-0.9,8.2-2.7,14c-1.8,5.8-4.4,11.9-7.8,18.3c-3.4,6.4-7.5,12.9-12.2,19.3
		c-4.8,6.4-10.1,12.1-16,16.9c-0.6,2.9-1.2,5.7-1.5,8.4c-0.4,2.7-0.6,5.3-0.6,7.8c0,8.3,2.4,12.4,7.1,12.4c2.1,0,4.3-0.7,6.4-2.3
		c2.1-1.5,4.2-3.5,6.2-5.9c2-2.4,3.9-5.2,5.7-8.3c1.8-3.1,3.4-6.2,4.8-9.3l2.4,1.3c-4.3,9.2-9,16.5-14,21.7
		c-5,5.3-10.5,7.9-16.3,7.9c-4.6,0-7.9-1.6-9.9-4.7c-2-3.1-3-7.1-3-11.9c0-0.5,0-1.1,0-1.8s0.1-1.3,0.2-1.9
		c-3.8,6.4-7.7,11.4-11.9,15c-4.2,3.5-8.7,5.3-13.5,5.3c-4.6,0-7.9-1.6-9.9-4.7c-2-3.1-3-7.1-3-11.9c0-5.1,1-11.3,3-18.4
		c2-7.1,4.5-14.6,7.6-22.3c3.1-7.7,6.5-15.4,10.4-22.9c3.9-7.6,7.6-14.3,11.3-20.4c3.7-6,7.1-10.9,10.3-14.6
		c3.2-3.7,5.7-5.6,7.5-5.6c0.9,0,1.6,0.4,2.3,1.2c0.6,0.8,1.2,1.8,1.7,3.1c0.5,1.2,0.8,2.5,1,3.9
		C154.7-257.4,154.8-256.2,154.8-255.1z M148.7-254c-0.8,0-1.9,1-3.5,2.9c-1.6,1.9-3.5,4.6-5.6,7.9c-2.1,3.3-4.4,7.2-6.8,11.7
		c-2.5,4.5-4.9,9.3-7.2,14.3c-2.4,5-4.6,10.3-6.7,15.7c-2.1,5.4-3.9,10.7-5.4,15.8c4.6-4.7,9.1-10.3,13.5-16.7
		c4.4-6.4,8.3-12.8,11.7-19.2c3.4-6.4,6.1-12.3,8.1-17.7c2-5.4,3.1-9.5,3.1-12.1c0-1.1-0.1-1.8-0.4-2.1
		C149.1-253.8,148.9-254,148.7-254z M182.8-247.6c-1.1,0-2.9,1.8-5.5,5.3c-2.6,3.5-5.4,8.2-8.4,14c-3.1,5.8-6.1,12.4-9.3,19.9
		c-3.1,7.5-5.8,15-8,22.8c4.6-4.7,8.9-9.9,12.9-15.7c4-5.7,7.4-11.4,10.3-17c2.9-5.6,5.1-10.8,6.8-15.5c1.6-4.8,2.4-8.5,2.4-11.2
		c0-1.1-0.1-1.8-0.4-2.1C183.3-247.4,183-247.6,182.8-247.6z"/>
	<g>
		<path class="st1" d="M230.8-168.6c-1.7,1.1-3.7,2.2-5.8,3.2c-4,1.9-7.7,3.2-10.9,4c0.2-1.4,0.4-3.2,0.4-5.3c0-0.5,0-2.5-0.3-5.2
			c-0.2-1.9-0.5-3.8-1-5.6c-0.9-3.5-1.8-6.9-2.9-10.2c-1.1-3.3-2-6.4-2.9-9.3c-0.9-2.9-1.3-5.8-1.3-8.4c0-1.8,0.2-3.3,0.5-4.5
			c0.3-1.2,0.5-2,0.5-2.6c0-1.4-0.9-2.1-2.6-2.1c-1.5,0-2.9,0.8-4.3,2.5c-1.3,1.7-2,4.5-2,8.4v1.9c-2,4.3-4.4,8.4-7.1,12.2
			c-2.7,3.9-5.6,7.6-8.9,11.1c-0.4,0.5-1.2,1-2.3,1.4c-1.1,0.4-2.3,1-3.5,1.9c-1.2,0.9-2.2,2.1-3.1,3.9c-0.9,1.7-1.4,4.2-1.4,7.4
			c0,2.5,0.3,4.9,1,7.4c0.7,2.5,1.8,4.7,3.4,6.8c1.6,2,3.6,3.7,6.2,5c2.6,1.3,5.7,1.9,9.5,1.9c2.5,0,7.5,0,12.5-3.2
			c5-3.2,7.2-7.8,8-9.7c1.2-0.3,2.8-0.8,4.6-1.5c2.2-0.8,5.2-1.9,8.7-3.8c1.8-1,4.1-2.3,6.6-4.2
			C231.9-166.4,231.4-167.5,230.8-168.6z M200.3-152.2c-0.9,1-1.8,1.8-2.7,2.3c-1,0.5-1.9,0.9-2.8,1c-0.9,0.2-1.7,0.2-2.3,0.2
			c-2.1,0-4-0.5-5.6-1.4c-1.6-0.9-3-2.1-4.1-3.5c-1.1-1.4-2-3.1-2.6-5c-0.6-1.9-0.9-3.8-0.9-5.7c0-3.6,1.2-5.5,3.5-5.6
			c1.7,2.8,4.3,5.5,7.8,8.1c3.5,2.6,7.5,4.4,12,5.2C201.9-154.7,201.2-153.2,200.3-152.2z M203.9-162.4c0,0.2-0.2,1.7-0.2,1.7l0,0
			c-1.5,0.2-4.2,0.4-7.1-0.7c-1-0.4-2.7-1.2-5.7-3.8c-3.4-3-5.9-6.2-7.5-9.7c2.5-2.5,5.1-5.6,7.8-9.3c2.7-3.7,5.3-7.6,7.8-11.7
			c0.9,4.5,1.9,9.2,3.1,14.1c1.2,4.9,1.9,9.9,1.9,15C204-165,204-163.6,203.9-162.4z"/>
		<path class="st1" d="M321.7-152.2c0.8,0.6,2.9,2.2,5.4,1.7c2.8-0.5,4.6-3.1,5.2-5.2c1.2-3.8-1.2-7.5-2.7-9.7
			c-6.6-10-20.4-14.6-25.9-16.2c7.8,6,10.8,11.8,12,16.1C317.3-160.7,317.4-155.5,321.7-152.2z"/>
		<g>
			<g>
				<g>
					<path class="st2" d="M240.3-233.3c-0.4-4.6-0.4-11.7,2-19.9c1.7-5.8,4.1-10.3,6.2-13.6c-1-1.6-6.9-11.2-3.6-22.8
						c2.2-7.8,7.5-12.3,9.6-13.9c-27.2,8.4-40.9,31.5-36,48.6C222.3-241.4,236.9-234.7,240.3-233.3z"/>
					<path class="st2" d="M225.6-218.3c5.6,3.2,10.8,4.5,14.2,5.2c7.3-2.5,10.5-9.4,8.6-14.2c-1.8-4.6-7.7-5.8-8.1-5.9
						c-4.6-2.1-11.6-6-18.2-13c-10-10.6-13.3-22.3-14.4-27.7c-1.6,3.2-7.2,14.8-3.5,29C208.5-228,222.6-220,225.6-218.3z"/>
					<path class="st2" d="M216.6-214.5c6.2,4.9,14.6,6,21.8,2.9c0.5-0.5,1-1,1.5-1.6c-3.7-0.7-8.8-2.1-14.2-5.2
						c-9.2-5.1-14.4-12.1-16.9-16C207.6-226.8,210.6-219.2,216.6-214.5z"/>
				</g>
				<path class="st2" d="M248.5-266.7c-4.5,7-6.4,14.1-6.7,15.3c-2,7.6-1.8,14.1-1.3,18.3c0.8,0,3.4,0.3,5.7,2.4
					c3.2,3.1,2.7,7.4,2.6,7.8c0.4-0.3,4-3.2,8.7-2c3.4,0.9,6,3.5,6.9,7c0-0.8,0.2-3.7,2.4-6.2c0.5-0.5,1.8-1.9,4-2.6
					c3.5-1.2,6.5,0.2,7.2,0.5c3-4.4,9.7-15.6,10.2-31.5c0.5-15.8-5.4-27.4-8.1-32C275-288.1,258.4-282.1,248.5-266.7z"/>
				<g>
					<path class="st2" d="M278.1-226.2c2.7-3.7,6.4-9.8,8.5-18c1.5-5.8,1.8-11,1.7-14.8c1.6-0.8,11.6-5.9,14.7-17.6
						c2.1-7.9,0-14.5-0.9-16.9c18.7,21.4,18.3,48.3,5.5,60.4C297.4-223.7,281.7-225.7,278.1-226.2z"/>
					<path class="st2" d="M282.8-205.7c-6.3-0.2-11.4-1.8-14.7-3.1c-4.8-6-4-13.6,0-16.7c3.8-3,9.5-0.9,9.9-0.8c5,0.6,12.9,1,22-1.6
						c13.9-3.8,22.7-12,26.4-16.1c-0.2,3.6-1.5,16.4-11.9,26.6C302.2-205,286.2-205.6,282.8-205.7z"/>
					<path class="st2" d="M288.4-197.7c-7.7,0.9-15.4-2.5-19.9-9c-0.1-0.7-0.3-1.4-0.4-2.1c3.5,1.3,8.5,2.8,14.7,3.1
						c10.4,0.4,18.4-2.8,22.5-4.8C302.4-203.5,295.9-198.6,288.4-197.7z"/>
				</g>
			</g>
			<g>
				<path class="st3" d="M291.9-308.7c0.4-2,1.5-6.8,5.4-11.3c3.8-4.2,8.1-5.9,10.1-6.6c3.8-0.6,6.8,0.3,7.5,2.1
					c0.6,1.5-0.7,3.3-1,3.6c-2.5,3.4-7.1,2.3-12.1,4.1C299.2-315.8,295.5-313.8,291.9-308.7z"/>
				<path class="st3" d="M281-311.3c0.8-1.9,2.6-6.5,1.8-12.4c-0.7-5.6-3.4-9.5-4.6-11.1c-2.8-2.7-5.8-3.6-7.4-2.5
					c-1.3,0.9-1.3,3.2-1.2,3.5c0.2,4.3,4.5,5.9,7.7,10.2C279-321.3,280.9-317.5,281-311.3z"/>
				<path class="st3" d="M285.6-308.8c1.5-7.8,2.3-14,2.7-18.2c0.3-3.2,0.5-5.9,2.5-7.2c2.8-1.8,7.9-0.3,8.5,2
					c0.5,1.9-2.1,3.8-4.7,6.6C291.8-322.3,288.1-317.1,285.6-308.8z"/>
			</g>
			<circle class="st1" cx="255.7" cy="-216.1" r="9"/>
			<circle class="st1" cx="282.7" cy="-298.8" r="4.8"/>
		</g>
		<path class="st1" d="M254.4-207.5c-0.6-0.2-1.3-0.3-1.9-0.5c0.3,4.4,0.1,11.5-3.2,19.1c-4,9.3-10.6,14.5-14.4,17.4
			c-3.6,2.8-7,4.7-9.9,6c0.5,0.8,1,1.6,1.5,2.4c9-4.3,22.9-13.7,27-30.8C254.2-197,255-201.6,254.4-207.5z"/>
		<path class="st4" d="M231-165.1c2.2-1.6,5.3-3.9,9.3-6.4c7.2-4.6,21-13.3,36.6-16c17.7-3,41,1,54.2,16.1
			c1.3,1.5,12.5,14.5,7.9,21.8c-2.3,3.5-9.4,4.8-14.5,4.2c-4.4-0.5-7.4-2.3-8.3-1.1c-0.9,1.1,0.7,4,2.5,6.5"/>
		<path class="st1" d="M295.2-166.8c0.7,0.2,2.7,0.8,4.4-0.1c1.9-1.1,2.6-3.4,2.5-5.1c-0.1-3.1-2.8-5.2-4.5-6.4
			c-7.4-5.6-18.7-5.4-23.1-5.2c7.2,2.4,10.9,5.9,13,8.7C289.7-171.9,291.2-168.1,295.2-166.8z"/>
		<path class="st1" d="M271.4-171.8c0.5,0,1.8-0.1,2.7-1.1c0.9-1.1,0.8-2.7,0.4-3.7c-0.8-1.9-2.9-2.6-4.2-3
			c-5.8-1.8-12.8,0.8-15.5,1.9c5-0.1,8.1,1.2,10,2.5C266.9-173.8,268.6-171.7,271.4-171.8z"/>
	</g>
</g>
<g>
	<path class="st1" d="M-624.9,206.6c0-4.5,1.1-9.3,3.2-14.2c2.1-5,5.2-9.6,9.2-13.9c4-4.3,8.8-7.8,14.5-10.6c5.7-2.8,12-4.2,19-4.2
		c6.2,0,10.6,1.5,13.1,4.6c2.5,3.1,3.8,6.9,3.8,11.5c0,2.9-0.4,6-1.2,9.3c-0.8,3.3-1.8,6.6-3.1,9.7c-1.2,3.2-2.6,6.2-4,9
		c-1.4,2.8-2.8,5.3-4.1,7.3c-1.9-0.4-3.3-1.2-4.1-2.4c-0.8-1.2-1.2-2.7-1.2-4.5c0-2.3,0.5-4.9,1.4-7.8c1-2.9,2.1-6,3.3-9
		c1.2-3.1,2.3-6.1,3.3-9c1-2.9,1.4-5.6,1.4-8c0-2.1-0.6-3.8-1.9-5.1c-1.3-1.2-3.6-1.9-7.1-1.9c-5,0-9.7,1.2-14.1,3.6
		c-4.3,2.4-8.1,5.4-11.3,9c-3.2,3.6-5.6,7.5-7.4,11.6c-1.8,4.1-2.7,7.9-2.7,11.2c0,4,1.2,7.4,3.5,10.2c2.4,2.8,5.3,5.4,8.9,7.8
		c3.6,2.4,7.5,4.6,11.6,6.8c4.1,2.2,8,4.7,11.6,7.6c3.6,2.8,6.6,6.2,8.9,10c2.4,3.8,3.5,8.4,3.5,13.9c0,5.6-1.3,10.5-3.8,14.7
		c-2.5,4.2-5.8,7.8-9.8,10.7c-4,2.9-8.5,5.1-13.5,6.6c-5,1.5-10,2.3-14.9,2.3c-4.4,0-8.6-0.6-12.6-1.8c-4-1.2-7.6-3-10.7-5.3
		c-3.1-2.4-5.6-5.4-7.5-9c-1.9-3.6-2.8-7.9-2.8-12.7c0-4.2,0.7-7.7,2-10.5c1.3-2.8,3-5,5-6.6c2-1.6,4.2-2.8,6.6-3.5
		c2.4-0.7,4.7-1,7-1c-2.9,3.1-5.1,6.5-6.6,10.3c-1.5,3.8-2.3,7.5-2.3,11.3c0,3,0.5,5.8,1.5,8.5c1,2.7,2.5,5.1,4.5,7.2
		c2,2.1,4.5,3.8,7.6,5c3.1,1.2,6.8,1.9,10.9,1.9c3.6,0,7.2-0.5,10.8-1.5c3.5-1,6.7-2.5,9.6-4.4c2.8-1.9,5.1-4.4,6.9-7.3
		c1.8-2.9,2.7-6.4,2.7-10.2c0-4.6-1.2-8.6-3.6-11.8c-2.4-3.3-5.4-6.2-9.1-8.9c-3.6-2.6-7.6-5.1-11.7-7.5c-4.2-2.4-8.1-4.9-11.7-7.6
		c-3.6-2.7-6.7-5.7-9.1-9.1C-623.7,215.5-624.9,211.4-624.9,206.6z"/>
	<path class="st1" d="M-506.3,231.4c0,4.1-1.2,7.9-3.6,11.5c-2.4,3.6-5.6,6.8-9.4,9.6c-3.9,2.8-8.2,5.1-12.9,6.8
		c-4.7,1.8-9.4,2.9-14,3.3c-0.2,1.1-0.4,2.1-0.5,3.1c-0.1,1-0.2,1.9-0.2,2.7c0,1.6,0.2,3.2,0.6,4.8c0.4,1.6,1,3.1,2,4.3
		c1,1.3,2.3,2.3,3.9,3.1c1.7,0.8,3.7,1.2,6.2,1.2c3.4,0,6.9-0.8,10.3-2.3c3.4-1.5,6.7-3.6,9.8-6.2c3.1-2.6,6-5.7,8.8-9.1
		c2.7-3.4,5.1-7.1,7.2-10.9l1.9,1.4c-2.1,4.8-4.8,9.2-7.9,13.1c-3.1,3.9-6.5,7.2-10.1,10c-3.6,2.7-7.4,4.9-11.4,6.4
		c-4,1.5-8,2.3-12,2.3c-6.5,0-11.5-1.8-14.7-5.4c-3.3-3.6-4.9-8-4.9-13.3c0-3.2,0.6-6.6,1.7-10.1c1.1-3.5,2.7-7,4.7-10.5
		c2-3.4,4.3-6.7,6.9-9.8c2.6-3.1,5.5-5.8,8.5-8.2c3.1-2.4,6.2-4.2,9.4-5.6c3.2-1.4,6.4-2.1,9.7-2.1c2.5,0,4.7,0.6,6.8,1.9
		C-507.3,224.8-506.3,227.4-506.3,231.4z M-516.8,226.5c-2.6,0-5.3,1-8.2,3c-2.9,2-5.7,4.6-8.4,7.7c-2.7,3.2-5.1,6.7-7.2,10.6
		c-2.1,3.9-3.8,7.8-4.8,11.7c2.9-1,6.2-2.4,9.8-4.3c3.6-1.9,7.1-4.1,10.5-6.7c3.3-2.6,6.1-5.4,8.4-8.5c2.3-3.1,3.4-6.4,3.4-9.8
		c0-1.2-0.2-2.1-0.6-2.7C-514.5,226.9-515.4,226.5-516.8,226.5z"/>
	<path class="st1" d="M-501,259c1.5-2.8,3.5-6.9,5.9-12.2c2.4-5.4,4.8-11.5,7.2-18.3c-1.1-1.1-1.6-2.4-1.6-3.9
		c0-1.6,0.3-3.1,0.8-4.4c0.5-1.3,1.2-2.5,1.9-3.5c0.7-1,1.5-1.7,2.3-2.3c0.7-0.5,1.3-0.8,1.8-0.8c1.2,0,1.9,0.5,2,1.5
		c0.2,1,0.2,1.8,0.2,2.3c0,0.3-0.1,0.8-0.2,1.4c-0.2,0.6-0.4,1.2-0.6,1.9c-0.3,0.6-0.5,1.2-0.6,1.8c-0.2,0.5-0.2,0.9-0.2,1
		c0,1.5,0.9,2.9,2.6,4.1c1.7,1.2,3.6,2.6,5.6,4.2c2,1.6,3.9,3.4,5.6,5.6c1.7,2.2,2.6,5,2.6,8.4c0,2.5-0.4,5-1.3,7.5
		c-0.9,2.5-1.8,5-2.7,7.3c-1,2.4-1.9,4.6-2.7,6.7c-0.9,2.1-1.3,4-1.3,5.7c0,1.9,0.5,3.2,1.4,3.9c1,0.6,2.1,1,3.4,1
		c2.6,0,5.3-0.8,8-2.4c2.8-1.6,5.4-3.6,8-6c2.5-2.4,4.8-5,6.8-7.8c2-2.8,3.5-5.4,4.5-7.7l2.1,1.6c-1.5,3.4-3.5,6.8-5.9,10.2
		c-2.4,3.4-5.1,6.4-8.1,9c-3,2.6-6.2,4.8-9.5,6.4c-3.3,1.7-6.7,2.5-10.1,2.5c-3.6,0-6.5-1-8.6-2.9c-2.1-1.9-3.1-4.5-3.1-7.6
		c0-2.4,0.5-4.9,1.4-7.5c0.9-2.6,1.9-5.3,3.1-7.9c1.1-2.6,2.1-5.2,3.1-7.7c0.9-2.5,1.4-4.9,1.4-7c0-1.7-0.3-3.2-0.8-4.4
		c-0.5-1.2-1.3-2.3-2.2-3.2c-0.9-0.9-1.9-1.7-3-2.4c-1.1-0.7-2.1-1.4-3.1-2.2c-1.3,3.2-2.6,6.4-3.9,9.4c-1.3,3.1-2.6,5.9-3.9,8.6
		c-1.3,2.7-2.5,5.1-3.6,7.4c-1.1,2.3-2.1,4.1-3,5.5L-501,259z"/>
	<path class="st1" d="M-374.3,255.7c-2.4,5.4-5,9-7.8,10.8c-2.8,1.8-5.6,2.7-8.1,2.7c-3.5,0-6.5-1.3-8.9-3.9
		c-2.4-2.6-3.9-6.5-4.7-11.7c-1.9,3.9-4.2,7.7-6.7,11.6c-2.5,3.9-5.1,7.3-7.8,10.4c-2.7,3.1-5.4,5.5-8.2,7.4c-2.8,1.9-5.5,2.8-8,2.8
		c-3.4,0-5.8-1.6-7-4.9c-1.2-3.3-1.9-7.5-1.9-12.8c0-0.2,0.1-1.9,0.2-5.1c0.1-3.2,0.4-8.5,0.8-16c0.2-2.9,0.5-4.9,1-6
		c0.4-1.1,1.8-1.6,4.2-1.6c1.8,0,3,0.3,3.5,1c0.5,0.7,0.7,2.1,0.7,4.1c0,3.5-0.2,7.7-0.7,12.5c-0.5,4.8-0.7,9.3-0.7,13.4
		c0,3.1,0.2,5.4,0.7,6.8c0.5,1.4,1.5,2.2,3,2.2c1.9,0,4.1-1.1,6.5-3.4c2.4-2.3,4.8-5.1,7.2-8.6c2.4-3.5,4.7-7.3,6.9-11.4
		c2.2-4.1,4.2-8.1,5.9-11.8c0.1-3.6,0.4-6.6,0.8-8.9c0.4-2.3,1-4.2,1.6-5.6c0.6-1.4,1.4-2.4,2.3-2.9c0.9-0.5,1.8-0.8,2.7-0.8
		c2,0,3.5,0.7,4.4,2.2c0.9,1.4,1.4,2.8,1.4,3.9c0,1.1-0.3,2.1-0.9,3.1c-0.6,1-1.2,2.3-1.9,3.9c-0.7,1.6-1.3,3.5-1.9,5.8
		c-0.6,2.3-0.9,5.2-0.9,8.8c0,1.3,0.1,2.7,0.2,4.1c0.2,1.4,0.5,2.8,1,4c0.5,1.2,1.3,2.2,2.3,3c1,0.8,2.3,1.1,4,1.1
		c2.3,0,4.4-0.9,6.4-2.6c2-1.7,4.1-4.8,6.3-9.3L-374.3,255.7z"/>
	<path class="st1" d="M-357,224.9c1,0,1.8,0.3,2.5,0.9c0.7,0.6,1,1.5,1,2.7c0,1.3-0.9,3.4-2.7,6.4c-1.8,3-3.7,6.3-5.8,10
		c-2.1,3.7-4,7.6-5.7,11.7c-1.7,4.1-2.6,8.1-2.6,11.8c0,3.9,0.6,6.4,1.9,7.7c1.3,1.3,3.3,1.9,6,1.9c1.8,0,3.7-0.4,5.6-1.3
		c1.9-0.9,3.9-2.3,6-4.2s4.2-4.5,6.4-7.6c2.2-3.1,4.4-7,6.7-11.6l1.4,1.6c-1.6,4.6-3.6,8.7-5.9,12.3c-2.3,3.6-4.9,6.6-7.6,9
		c-2.8,2.4-5.7,4.2-8.9,5.5c-3.1,1.2-6.2,1.9-9.3,1.9c-4.2,0-7.3-1.3-9.3-3.9c-2-2.6-3.1-5.8-3.1-9.6c0-2,0.3-4.6,1-7.6
		c0.6-3,1.5-6.2,2.7-9.6c1.1-3.4,2.4-6.7,3.9-10.1c1.4-3.3,3-6.3,4.7-9c1.7-2.7,3.5-4.9,5.4-6.5C-360.6,225.8-358.8,224.9-357,224.9
		z M-348.4,210c-1.8,0-3.4-0.4-4.7-1.3c-1.3-0.9-1.9-2.2-1.9-4c0-1.1,0.4-2.1,1.1-3.1c0.7-1,1.7-1.9,2.8-2.7
		c1.1-0.8,2.4-1.4,3.8-1.9c1.4-0.4,2.7-0.6,4-0.6c1.6,0,2.9,0.4,3.9,1.1c1,0.8,1.4,2,1.4,3.9c0,1-0.3,2-0.9,3.1
		c-0.6,1.1-1.4,2-2.4,2.8c-1,0.8-2.1,1.5-3.4,2C-345.9,209.7-347.2,210-348.4,210z"/>
	<path class="st1" d="M-306,225.1c2.3,0,4.1,0.3,5.6,1c1.4,0.7,2.6,1.6,3.5,2.7c0.9,1.1,1.5,2.4,1.9,3.9c0.4,1.4,0.6,2.9,0.6,4.3
		c0,3.1-0.7,5.8-2.2,8.2c-1.4,2.4-3.4,3.5-5.9,3.5c-1.8,0-3.4-0.8-4.7-2.4c1.6-0.9,3-2.6,4.2-5.1c1.2-2.6,1.8-5.1,1.8-7.6
		c0-1.3-0.2-2.3-0.7-3c-0.5-0.7-1.4-1-2.8-1c-2.9,0-5.9,1.3-9,3.9c-3.1,2.6-6,5.9-8.5,9.9c-2.6,4-4.7,8.2-6.4,12.8
		c-1.7,4.6-2.5,8.8-2.5,12.8c0,1.6,0.2,3.2,0.6,4.8c0.4,1.6,1,3.1,1.9,4.3c0.9,1.3,2.1,2.3,3.6,3.1c1.6,0.7,3.5,1.1,5.7,1.1
		c3.2,0,6.5-0.7,9.7-2c3.3-1.3,6.4-3.3,9.5-5.8c3.1-2.5,5.9-5.6,8.4-9.2c2.6-3.6,4.7-7.6,6.4-12.2l2.1,1.6
		c-1.8,4.8-4.2,9.3-7.2,13.4c-3,4.1-6.2,7.7-9.7,10.7c-3.5,3-7.3,5.3-11.3,7c-4,1.7-7.9,2.5-11.7,2.5c-5.1,0-9.4-1.7-12.9-5.1
		c-3.4-3.4-5.1-8.6-5.1-15.5c0-5.4,1.1-10.6,3.2-15.8c2.1-5.1,4.9-9.7,8.3-13.8c3.4-4,7.2-7.2,11.3-9.7
		C-314.2,226.3-310,225.1-306,225.1z"/>
	<path class="st1" d="M-239.7,231.4c0,4.1-1.2,7.9-3.6,11.5c-2.4,3.6-5.6,6.8-9.4,9.6c-3.9,2.8-8.2,5.1-12.9,6.8
		c-4.7,1.8-9.4,2.9-14,3.3c-0.2,1.1-0.4,2.1-0.5,3.1c-0.1,1-0.2,1.9-0.2,2.7c0,1.6,0.2,3.2,0.6,4.8c0.4,1.6,1,3.1,2,4.3
		c1,1.3,2.3,2.3,3.9,3.1c1.7,0.8,3.7,1.2,6.2,1.2c3.4,0,6.9-0.8,10.3-2.3c3.4-1.5,6.7-3.6,9.8-6.2c3.1-2.6,6-5.7,8.8-9.1
		c2.7-3.4,5.1-7.1,7.2-10.9l1.9,1.4c-2.1,4.8-4.8,9.2-7.9,13.1c-3.1,3.9-6.5,7.2-10.1,10c-3.6,2.7-7.4,4.9-11.4,6.4
		c-4,1.5-8,2.3-12,2.3c-6.5,0-11.5-1.8-14.7-5.4c-3.3-3.6-4.9-8-4.9-13.3c0-3.2,0.6-6.6,1.7-10.1c1.1-3.5,2.7-7,4.7-10.5
		c2-3.4,4.3-6.7,6.9-9.8c2.6-3.1,5.5-5.8,8.5-8.2c3.1-2.4,6.2-4.2,9.4-5.6c3.2-1.4,6.4-2.1,9.7-2.1c2.5,0,4.7,0.6,6.8,1.9
		C-240.7,224.8-239.7,227.4-239.7,231.4z M-250.1,226.5c-2.6,0-5.3,1-8.2,3c-2.9,2-5.7,4.6-8.4,7.7c-2.7,3.2-5.1,6.7-7.2,10.6
		c-2.1,3.9-3.8,7.8-4.8,11.7c2.9-1,6.2-2.4,9.8-4.3c3.6-1.9,7.1-4.1,10.5-6.7c3.3-2.6,6.1-5.4,8.4-8.5c2.3-3.1,3.4-6.4,3.4-9.8
		c0-1.2-0.2-2.1-0.6-2.7C-247.8,226.9-248.7,226.5-250.1,226.5z"/>
	<g>
		<path class="st1" d="M-182.1,261.2c-1.7,1.1-3.7,2.2-5.8,3.2c-4,1.9-7.7,3.2-10.9,4c0.2-1.4,0.4-3.2,0.4-5.3c0-0.5,0-2.5-0.3-5.2
			c-0.2-1.9-0.5-3.8-1-5.6c-0.9-3.5-1.8-6.9-2.9-10.2c-1.1-3.3-2-6.4-2.9-9.3c-0.9-2.9-1.3-5.8-1.3-8.4c0-1.8,0.2-3.3,0.5-4.5
			c0.3-1.2,0.5-2,0.5-2.6c0-1.4-0.9-2.1-2.6-2.1c-1.5,0-2.9,0.8-4.3,2.5c-1.3,1.7-2,4.5-2,8.4v1.9c-2,4.3-4.4,8.4-7.1,12.2
			c-2.7,3.9-5.6,7.6-8.9,11.1c-0.4,0.5-1.2,1-2.3,1.4c-1.1,0.4-2.3,1-3.5,1.9c-1.2,0.9-2.2,2.1-3.1,3.9c-0.9,1.7-1.4,4.2-1.4,7.4
			c0,2.5,0.3,4.9,1,7.4c0.7,2.5,1.8,4.7,3.4,6.8c1.6,2,3.6,3.7,6.2,5c2.6,1.3,5.7,1.9,9.5,1.9c2.5,0,7.5,0,12.5-3.2
			c5-3.2,7.2-7.8,8-9.7c1.2-0.3,2.8-0.8,4.6-1.5c2.2-0.8,5.2-1.9,8.7-3.8c1.8-1,4.1-2.3,6.6-4.2
			C-181.1,263.5-181.6,262.4-182.1,261.2z M-212.6,277.7c-0.9,1-1.8,1.8-2.7,2.3c-1,0.5-1.9,0.9-2.8,1c-0.9,0.2-1.7,0.2-2.3,0.2
			c-2.1,0-4-0.5-5.6-1.4c-1.6-0.9-3-2.1-4.1-3.5c-1.1-1.4-2-3.1-2.6-5c-0.6-1.9-0.9-3.8-0.9-5.7c0-3.6,1.2-5.5,3.5-5.6
			c1.7,2.8,4.3,5.5,7.8,8.1c3.5,2.6,7.5,4.4,12,5.2C-211,275.2-211.8,276.7-212.6,277.7z M-209.1,267.5c0,0.2-0.2,1.7-0.2,1.7l0,0
			c-1.5,0.2-4.2,0.4-7.1-0.7c-1-0.4-2.7-1.2-5.7-3.8c-3.4-3-5.9-6.2-7.5-9.7c2.5-2.5,5.1-5.6,7.8-9.3c2.7-3.7,5.3-7.6,7.8-11.7
			c0.9,4.5,1.9,9.2,3.1,14.1c1.2,4.9,1.9,9.9,1.9,15C-208.9,264.9-209,266.3-209.1,267.5z"/>
		<path class="st1" d="M-91.3,277.7c0.8,0.6,2.9,2.2,5.4,1.7c2.8-0.5,4.6-3.1,5.2-5.2c1.2-3.8-1.2-7.5-2.7-9.7
			c-6.6-10-20.4-14.6-25.9-16.2c7.8,6,10.8,11.8,12,16.1C-95.7,269.2-95.6,274.4-91.3,277.7z"/>
		<g>
			<g>
				<g>
					<path class="st2" d="M-172.7,196.6c-0.4-4.6-0.4-11.7,2-19.9c1.7-5.8,4.1-10.3,6.2-13.6c-1-1.6-6.9-11.2-3.6-22.8
						c2.2-7.8,7.5-12.3,9.6-13.9c-27.2,8.4-40.9,31.5-36,48.6C-190.7,188.5-176.1,195.2-172.7,196.6z"/>
					<path class="st2" d="M-187.4,211.6c5.6,3.2,10.8,4.5,14.2,5.2c7.3-2.5,10.5-9.4,8.6-14.2c-1.8-4.6-7.7-5.8-8.1-5.9
						c-4.6-2.1-11.6-6-18.2-13c-10-10.6-13.3-22.3-14.4-27.7c-1.6,3.2-7.2,14.8-3.5,29C-204.4,201.9-190.3,209.9-187.4,211.6z"/>
					<path class="st2" d="M-196.4,215.4c6.2,4.9,14.6,6,21.8,2.9c0.5-0.5,1-1,1.5-1.6c-3.7-0.7-8.8-2.1-14.2-5.2
						c-9.2-5.1-14.4-12.1-16.9-16C-205.4,203.1-202.4,210.7-196.4,215.4z"/>
				</g>
				<path class="st2" d="M-164.4,163.2c-4.5,7-6.4,14.1-6.7,15.3c-2,7.6-1.8,14.1-1.3,18.3c0.8,0,3.4,0.3,5.7,2.4
					c3.2,3.1,2.7,7.4,2.6,7.8c0.4-0.3,4-3.2,8.7-2c3.4,0.9,6,3.5,6.9,7c0-0.8,0.2-3.7,2.4-6.2c0.5-0.5,1.8-1.9,4-2.6
					c3.5-1.2,6.5,0.2,7.2,0.5c3-4.4,9.7-15.6,10.2-31.5c0.5-15.8-5.4-27.4-8.1-32C-138,141.8-154.6,147.8-164.4,163.2z"/>
				<g>
					<path class="st2" d="M-134.9,203.7c2.7-3.7,6.4-9.8,8.5-18c1.5-5.8,1.8-11,1.7-14.8c1.6-0.8,11.6-5.9,14.7-17.6
						c2.1-7.9,0-14.5-0.9-16.9c18.7,21.4,18.3,48.3,5.5,60.4C-115.5,206.2-131.3,204.2-134.9,203.7z"/>
					<path class="st2" d="M-130.2,224.1c-6.3-0.2-11.4-1.8-14.7-3.1c-4.8-6-4-13.6,0-16.7c3.8-3,9.5-0.9,9.9-0.8
						c5,0.6,12.9,1,22-1.6c13.9-3.8,22.7-12,26.4-16.1c-0.2,3.6-1.5,16.4-11.9,26.6C-110.8,224.9-126.8,224.3-130.2,224.1z"/>
					<path class="st2" d="M-124.5,232.2c-7.7,0.9-15.4-2.5-19.9-9c-0.1-0.7-0.3-1.4-0.4-2.1c3.5,1.3,8.5,2.8,14.7,3.1
						c10.4,0.4,18.4-2.8,22.5-4.8C-110.6,226.4-117,231.3-124.5,232.2z"/>
				</g>
			</g>
			<g>
				<path class="st3" d="M-121,121.2c0.4-2,1.5-6.8,5.4-11.3c3.8-4.2,8.1-5.9,10.1-6.6c3.8-0.6,6.8,0.3,7.5,2.1
					c0.6,1.5-0.7,3.3-1,3.6c-2.5,3.4-7.1,2.3-12.1,4.1C-113.8,114.1-117.4,116.1-121,121.2z"/>
				<path class="st3" d="M-131.9,118.6c0.8-1.9,2.6-6.5,1.8-12.4c-0.7-5.6-3.4-9.5-4.6-11.1c-2.8-2.7-5.8-3.6-7.4-2.5
					c-1.3,0.9-1.3,3.2-1.2,3.5c0.2,4.3,4.5,5.9,7.7,10.2C-133.9,108.6-132.1,112.4-131.9,118.6z"/>
				<path class="st3" d="M-127.3,121.1c1.5-7.8,2.3-14,2.7-18.2c0.3-3.2,0.5-5.9,2.5-7.2c2.8-1.8,7.9-0.3,8.5,2
					c0.5,1.9-2.1,3.8-4.7,6.6C-121.2,107.6-124.9,112.8-127.3,121.1z"/>
			</g>
			<circle class="st1" cx="-157.3" cy="213.7" r="9"/>
			<circle class="st1" cx="-130.2" cy="131.1" r="4.8"/>
		</g>
		<path class="st1" d="M-158.5,222.4c-0.6-0.2-1.3-0.3-1.9-0.5c0.3,4.4,0.1,11.5-3.2,19.1c-4,9.3-10.6,14.5-14.4,17.4
			c-3.6,2.8-7,4.7-9.9,6c0.5,0.8,1,1.6,1.5,2.4c9-4.3,22.9-13.7,27-30.8C-158.7,232.9-158,228.3-158.5,222.4z"/>
		<path class="st4" d="M-182,264.8c2.2-1.6,5.3-3.9,9.3-6.4c7.2-4.6,21-13.3,36.6-16c17.7-3,41,1,54.2,16.1
			c1.3,1.5,12.5,14.5,7.9,21.8c-2.3,3.5-9.4,4.8-14.5,4.2c-4.4-0.5-7.4-2.3-8.3-1.1c-0.9,1.1,0.7,4,2.5,6.5"/>
		<path class="st1" d="M-117.8,263.1c0.7,0.2,2.7,0.8,4.4-0.1c1.9-1.1,2.6-3.4,2.5-5.1c-0.1-3.1-2.8-5.2-4.5-6.4
			c-7.4-5.6-18.7-5.4-23.1-5.2c7.2,2.4,10.9,5.9,13,8.7C-123.2,258-121.8,261.8-117.8,263.1z"/>
		<path class="st1" d="M-141.6,258.1c0.5,0,1.8-0.1,2.7-1.1c0.9-1.1,0.8-2.7,0.4-3.7c-0.8-1.9-2.9-2.6-4.2-3
			c-5.8-1.8-12.8,0.8-15.5,1.9c5-0.1,8.1,1.2,10,2.5C-146.1,256.1-144.4,258.1-141.6,258.1z"/>
	</g>
</g>
<rect x="-2133.8" y="-540.9" style="fill:none;" width="3.7" height="5.6"/>
<g>
	<ellipse cx="443.2" cy="69.1" rx="3.9" ry="4.3"/>
	<g>
		<g>
			<g>
				<path class="st2" d="M436.5,60.9c-0.2-2.2-0.2-5.6,0.9-9.5c0.8-2.8,1.8-4.9,2.7-6.5c-0.4-0.7-3-5.3-1.6-10.9
					c1-3.7,3.3-5.9,4.2-6.7c-11.9,4-17.9,15.1-15.8,23.2C428.6,57,435,60.2,436.5,60.9z"/>
				<path class="st2" d="M430,68c2.4,1.5,4.7,2.2,6.2,2.5c3.2-1.2,4.6-4.5,3.8-6.8c-0.8-2.2-3.4-2.8-3.6-2.8c-2-1-5.1-2.9-7.9-6.2
					c-4.4-5.1-5.8-10.6-6.3-13.2c-0.7,1.5-3.1,7.1-1.5,13.9C422.6,63.4,428.7,67.2,430,68z"/>
				<path class="st2" d="M426.1,69.9c2.7,2.3,6.4,2.9,9.5,1.4c0.2-0.2,0.4-0.5,0.6-0.7c-1.6-0.3-3.8-1-6.2-2.5
					c-4-2.5-6.3-5.8-7.4-7.7C422.2,64,423.5,67.6,426.1,69.9z"/>
			</g>
			<path class="st2" d="M440.1,44.9c-2,3.4-2.8,6.7-2.9,7.3c-0.9,3.6-0.8,6.7-0.6,8.7c0.3,0,1.5,0.1,2.5,1.1
				c1.4,1.5,1.2,3.5,1.2,3.7c0.2-0.1,1.7-1.5,3.8-1c1.5,0.4,2.6,1.7,3,3.3c0-0.4,0.1-1.8,1-2.9c0.2-0.3,0.8-0.9,1.7-1.3
				c1.5-0.6,2.9,0.1,3.2,0.3c1.3-2.1,4.2-7.4,4.5-15c0.2-7.6-2.4-13.1-3.5-15.3C451.6,34.7,444.4,37.5,440.1,44.9z"/>
			<g>
				<path class="st2" d="M453,64.2c1.2-1.8,2.8-4.7,3.7-8.6c0.7-2.8,0.8-5.2,0.7-7.1c0.7-0.4,5.1-2.8,6.4-8.4c0.9-3.8,0-6.9-0.4-8.1
					c8.2,10.2,8,23.1,2.4,28.8C461.4,65.5,454.6,64.5,453,64.2z"/>
				<path class="st2" d="M455,74c-2.8-0.1-5-0.9-6.4-1.5c-2.1-2.8-1.8-6.5,0-8c1.7-1.4,4.1-0.4,4.3-0.4c2.2,0.3,5.6,0.5,9.6-0.7
					c6.1-1.8,9.9-5.8,11.6-7.7c-0.1,1.7-0.7,7.8-5.2,12.7C463.5,74.4,456.5,74.1,455,74z"/>
				<path class="st2" d="M457.5,77.9c-3.4,0.4-6.7-1.2-8.7-4.3c-0.1-0.3-0.1-0.7-0.2-1c1.5,0.6,3.7,1.3,6.4,1.5
					c4.5,0.2,8-1.3,9.8-2.3C463.6,75.1,460.8,77.4,457.5,77.9z"/>
			</g>
		</g>
		<g>
			<path class="st3" d="M459,24.9c0.2-1,0.6-3.3,2.4-5.4c1.6-2,3.5-2.8,4.4-3.1c1.7-0.3,3,0.2,3.3,1c0.3,0.7-0.3,1.6-0.4,1.7
				c-1.1,1.6-3.1,1.1-5.3,1.9C462.2,21.4,460.6,22.4,459,24.9z"/>
			<path class="st3" d="M454.3,23.6c0.4-0.9,1.1-3.1,0.8-5.9c-0.3-2.7-1.5-4.5-2-5.3c-1.2-1.3-2.5-1.7-3.2-1.2
				c-0.6,0.4-0.5,1.5-0.5,1.7c0.1,2,2,2.8,3.4,4.9C453.4,18.8,454.2,20.6,454.3,23.6z"/>
			<path class="st3" d="M456.3,24.8c0.7-3.7,1-6.7,1.2-8.7c0.1-1.5,0.2-2.8,1.1-3.4c1.2-0.9,3.4-0.1,3.7,1c0.2,0.9-0.9,1.8-2,3.2
				C459,18.3,457.4,20.8,456.3,24.8z"/>
		</g>
		<ellipse cx="455" cy="29.6" rx="2.1" ry="2.3"/>
		<path d="M15.7,79.3c0.5-1.5,1.4-2.5,2.7-3.1c1.3-0.6,2.8-0.9,4.6-0.9c0.8,0,1.6,0.1,2.4,0.2c0.8,0.1,1.7,0.2,2.6,0.4
			c1.8-2.9,3.6-5.8,5.5-8.7c1.9-2.9,3.7-5.5,5.5-8c1.8-2.5,3.4-4.7,5-6.7c1.5-1.9,2.9-3.5,3.9-4.6c1.4-1.4,2.5-2.2,3.4-2.2
			c1,0,2.2,0.8,3.7,2.5c-0.5,0.4-1.1,1.5-1.8,3.3c-0.7,1.8-1.5,4-2.3,6.7c-0.8,2.6-1.6,5.6-2.4,8.8c-0.8,3.2-1.5,6.4-2.2,9.7
			c-0.7,3.3-1.2,6.4-1.6,9.4c-0.4,3-0.6,5.6-0.6,7.9c0,1.9,0.2,3.5,0.6,4.5c0.4,1.1,1.1,1.6,2,1.6c1.2,0,2.6-0.9,4.1-2.8
			c1.5-1.8,3.2-4.7,5.1-8.6l0.7,0.8c-0.7,2.1-1.5,3.9-2.4,5.7c-0.9,1.7-1.9,3.2-3,4.4c-1.1,1.2-2.2,2.2-3.3,2.9
			c-1.1,0.7-2.3,1-3.5,1c-2,0-3.4-0.9-4.2-2.8c-0.8-1.9-1.3-4.4-1.3-7.5c0-3.3,0.4-7.1,1.2-11.5c-2.1-0.4-4-0.7-5.7-0.9
			c-1.7-0.2-3.3-0.4-4.7-0.7c-2.3,4.5-4.4,9.1-6.5,13.8c-2.1,4.7-4,9.3-5.8,13.9c-1.1-0.7-1.7-1.4-2-2.1c-0.3-0.7-0.4-1.4-0.4-1.9
			c0-1.1,0.3-2.4,0.8-4.1c0.6-1.7,1.3-3.5,2.3-5.7c1-2.1,2.1-4.4,3.4-6.8c1.3-2.4,2.7-4.9,4.2-7.5c-1.7-0.2-3.2-0.3-4.4-0.3
			c-1.2-0.1-2.3-0.1-3.2-0.1H15.7z M49,50.5c-1.1,0.7-2.3,1.9-3.7,3.5c-1.4,1.6-2.8,3.5-4.3,5.8c-1.5,2.3-3.1,4.8-4.7,7.6
			c-1.6,2.8-3.2,5.9-4.9,9c1.6,0.4,3.2,0.8,4.7,1.2c1.5,0.4,3,0.8,4.4,1.2c0.5-2.5,1.1-5.1,1.8-7.7c0.7-2.6,1.4-5.2,2.1-7.7
			c0.7-2.5,1.5-4.8,2.3-7C47.6,54.3,48.3,52.3,49,50.5z"/>
		<path d="M51.8,100.5c0-0.2,0.3-1,0.8-2.4c0.5-1.4,1.1-3,1.7-4.9c0.6-1.9,1.2-3.9,1.7-6c0.5-2.1,0.8-4,0.8-5.7
			c0.3-0.4,0.7-0.7,1.3-1.1c0.6-0.4,1.2-0.5,1.9-0.5c1.3,0,1.9,0.7,1.9,2c0,0.8-0.2,2.2-0.6,4.1c-0.4,1.9-1,3.9-1.6,6.1
			c0.9-1.5,2-3.1,3.1-4.7c1.1-1.6,2.3-3.1,3.6-4.4c1.3-1.3,2.6-2.4,3.9-3.2c1.3-0.8,2.7-1.2,4-1.2c0.9,0,1.7,0.2,2.3,0.6
			c0.7,0.4,1.2,0.9,1.6,1.6c0.4,0.7,0.7,1.4,0.9,2.2c0.2,0.8,0.3,1.7,0.3,2.5c0,1.2-0.2,2.3-0.5,3.4c-0.3,1.1-0.6,2.1-1,3.1
			c-0.4,1-0.7,1.9-1,2.9c-0.3,0.9-0.5,1.9-0.5,2.8c0,1.1,0.2,1.8,0.6,2.3c0.4,0.4,0.9,0.7,1.5,0.7c0.9,0,1.8-0.4,2.7-1.1
			c0.9-0.7,1.8-1.7,2.6-2.8c0.8-1.2,1.7-2.4,2.4-3.8c0.8-1.4,1.5-2.8,2.1-4.3l0.8,1c-0.8,1.9-1.6,3.6-2.4,5.2
			c-0.9,1.6-1.8,3-2.8,4.1c-1,1.2-2.1,2.1-3.2,2.7c-1.1,0.6-2.4,1-3.7,1c-1.6,0-2.9-0.5-3.7-1.4c-0.8-0.9-1.2-2.1-1.2-3.5
			c0-0.8,0.1-1.6,0.3-2.5c0.2-0.9,0.4-1.8,0.7-2.7c0.3-0.9,0.5-1.8,0.7-2.8c0.2-0.9,0.3-1.8,0.3-2.8c0-1.4-0.3-2.4-0.8-3
			c-0.5-0.5-1.2-0.8-2-0.8c-1.5,0-2.9,0.7-4.4,2c-1.5,1.3-3,3-4.4,5c-1.4,2-2.7,4-4,6.2c-1.2,2.2-2.3,4.1-3.2,5.8
			c-0.8,0-1.5-0.1-2.1-0.4C52.7,101.5,52.2,101.1,51.8,100.5z"/>
		<path d="M84.7,100.5c0-0.2,0.3-1,0.8-2.4c0.5-1.4,1.1-3,1.7-4.9c0.6-1.9,1.2-3.9,1.7-6c0.5-2.1,0.8-4,0.8-5.7
			c0.3-0.4,0.7-0.7,1.3-1.1c0.6-0.4,1.2-0.5,1.9-0.5c1.3,0,1.9,0.7,1.9,2c0,0.8-0.2,2.2-0.6,4.1c-0.4,1.9-1,3.9-1.6,6.1
			c0.9-1.5,2-3.1,3.1-4.7c1.1-1.6,2.3-3.1,3.6-4.4c1.3-1.3,2.6-2.4,3.9-3.2c1.3-0.8,2.7-1.2,4-1.2c0.9,0,1.7,0.2,2.3,0.6
			c0.7,0.4,1.2,0.9,1.6,1.6c0.4,0.7,0.7,1.4,0.9,2.2c0.2,0.8,0.3,1.7,0.3,2.5c0,1.2-0.2,2.3-0.5,3.4c-0.3,1.1-0.6,2.1-1,3.1
			c-0.4,1-0.7,1.9-1,2.9c-0.3,0.9-0.5,1.9-0.5,2.8c0,1.1,0.2,1.8,0.6,2.3c0.4,0.4,0.9,0.7,1.5,0.7c0.9,0,1.8-0.4,2.7-1.1
			c0.9-0.7,1.8-1.7,2.6-2.8c0.8-1.2,1.7-2.4,2.4-3.8c0.8-1.4,1.5-2.8,2.1-4.3l0.8,1c-0.8,1.9-1.6,3.6-2.4,5.2
			c-0.9,1.6-1.8,3-2.8,4.1c-1,1.2-2.1,2.1-3.2,2.7c-1.1,0.6-2.4,1-3.7,1c-1.6,0-2.9-0.5-3.7-1.4c-0.8-0.9-1.2-2.1-1.2-3.5
			c0-0.8,0.1-1.6,0.3-2.5c0.2-0.9,0.4-1.8,0.7-2.7c0.3-0.9,0.5-1.8,0.7-2.8c0.2-0.9,0.3-1.8,0.3-2.8c0-1.4-0.3-2.4-0.8-3
			c-0.5-0.5-1.2-0.8-2-0.8c-1.5,0-2.9,0.7-4.4,2c-1.5,1.3-3,3-4.4,5c-1.4,2-2.7,4-4,6.2c-1.2,2.2-2.3,4.1-3.2,5.8
			c-0.8,0-1.5-0.1-2.1-0.4C85.6,101.5,85.1,101.1,84.7,100.5z"/>
		<path d="M139.9,84.7c0.2,0.1,0.4,0.1,0.8,0.2c0.3,0.1,0.6,0.2,0.9,0.4c0.3,0.2,0.6,0.3,0.8,0.5c0.2,0.2,0.3,0.5,0.3,0.8
			c0,0.5-0.2,1.1-0.6,1.9c-0.4,0.8-0.9,1.7-1.4,2.7c-0.5,1-1,2-1.4,3.1c-0.4,1.1-0.6,2-0.6,3c0,0.8,0.2,1.5,0.6,2.3
			c0.4,0.7,1,1.1,1.8,1.1c1.3,0,2.9-1,5-3c2.1-2,4.1-5,6.3-9.1l0.7,0.8c-0.8,2.1-1.7,4-2.7,5.7c-1.1,1.7-2.2,3.2-3.5,4.4
			c-1.2,1.2-2.5,2.2-3.8,2.8c-1.3,0.7-2.6,1-3.9,1c-1.7,0-3-0.6-3.8-1.7c-0.8-1.1-1.2-2.4-1.2-3.7c0-0.6,0.1-1.4,0.2-2.2
			c-2.1,3-3.9,5.2-5.6,6.7c-1.6,1.5-3.3,2.2-5.1,2.2c-1.5,0-2.7-0.5-3.7-1.6c-1-1.1-1.5-2.7-1.5-4.8c0-1.5,0.3-3.2,0.8-4.9
			c0.5-1.7,1.3-3.5,2.2-5.3c0.9-1.8,2-3.5,3.3-5.1c1.3-1.6,2.6-3,4-4.3c1.4-1.2,2.9-2.2,4.5-3c1.5-0.7,3.1-1.1,4.6-1.1
			c1.8,0,3.4,0.5,4.6,1.6c1.2,1.1,1.8,2.4,1.8,4.2c0,1.3-0.3,2.2-0.9,2.6c-0.6,0.5-1.5,0.7-2.5,0.7c0.2-0.9,0.4-1.8,0.4-2.7
			c0-1.2-0.3-2.2-0.8-3c-0.5-0.8-1.4-1.3-2.7-1.3c-1.1,0-2.3,0.4-3.4,1.1c-1.1,0.7-2.2,1.7-3.3,2.9c-1.1,1.2-2.1,2.6-3,4.1
			c-0.9,1.5-1.8,3.1-2.5,4.7c-0.7,1.6-1.3,3.2-1.7,4.8c-0.4,1.6-0.6,3-0.6,4.2c0,2,0.6,3,1.9,3c1.1,0,2.3-0.6,3.7-1.8
			c1.4-1.2,2.7-2.7,4.1-4.5c1.4-1.7,2.7-3.6,3.9-5.5C138,87.8,139,86.1,139.9,84.7z"/>
		<path d="M174.1,52.5c0.1-1.3,0.6-2.4,1.5-3.2c0.9-0.9,2.1-1.6,3.6-2.1c1.5-0.5,3.3-0.9,5.3-1.1c2.1-0.2,4.3-0.3,6.8-0.3
			c2.4,0,4.6,0.1,6.6,0.3c2,0.2,3.9,0.4,5.7,0.6c1.8,0.2,3.5,0.4,5.2,0.6c1.7,0.2,3.4,0.3,5.1,0.3c-1.6,1.6-3.5,2.6-5.5,3
			c-2,0.4-4.2,0.6-6.5,0.6c-0.8,0-1.6,0-2.5,0c-0.8,0-1.7,0-2.5,0c-1.5,4.2-3.2,9.3-5.2,15.5c-1.9,6.2-3.9,13.3-5.9,21.1
			c-0.5,2.1-1,3.9-1.4,5.6c-0.4,1.7-0.8,3.3-1.1,4.8c-0.3,1.5-0.6,2.9-0.7,4.2c-0.2,1.3-0.2,2.6-0.2,3.9c0,0.3,0,0.5,0,0.8
			c0,0.3,0,0.6,0.1,0.8c-2.1,0-3.6-0.5-4.4-1.5c-0.8-1-1.2-2.3-1.2-4c0-1.5,0.3-3.3,0.8-5.3c0.6-2,1.1-4,1.8-5.9
			c0.8-2.5,1.8-5.5,2.9-8.9c1.1-3.4,2.3-6.9,3.6-10.6c1.3-3.6,2.6-7.3,3.9-10.9c1.3-3.6,2.6-6.9,3.9-9.8c-2.4,0.1-4.5,0.1-6.3,0.2
			c-1.8,0.1-3.4,0.1-4.9,0.2c-1.5,0.1-2.9,0.2-4.2,0.4C177,51.9,175.6,52.1,174.1,52.5z"/>
		<path d="M214.6,90.1c0.5,0,1.3-0.1,2.3-0.4c1-0.3,2-0.7,3-1.3c1-0.6,1.9-1.3,2.6-2.3c0.7-0.9,1.1-2,1.1-3.4c0-1.1-0.4-1.9-1.1-2.5
			c-0.7-0.6-1.5-0.9-2.5-0.9c-1.4,0-2.7,0.5-3.9,1.6c-1.2,1.1-2.3,2.4-3.3,4c-1,1.6-1.9,3.3-2.7,5.2c-0.8,1.9-1.5,3.7-2,5.3
			c-0.6,1.7-1,3.1-1.4,4.4c-0.4,1.3-0.6,2-0.8,2.3c-0.2,0.5-0.6,0.8-1.1,1c-0.5,0.2-0.9,0.3-1.3,0.3c-0.6,0-1.1-0.2-1.4-0.6
			c-0.3-0.4-0.6-1-0.7-1.7c-0.2-0.7-0.3-1.5-0.3-2.3c0-0.9,0-1.7,0-2.6c0-2.7,0.4-5.8,1.2-9.3c0.8-3.5,1.9-7.1,3.2-10.8
			c1.3-3.7,2.8-7.4,4.4-11c1.6-3.6,3.2-6.8,4.8-9.6c1.6-2.8,3.1-5.1,4.4-6.8c1.4-1.7,2.5-2.6,3.3-2.6c0.7,0,1.2,0.5,1.6,1.5
			c0.4,1,0.6,2.2,0.6,3.5c0,1.8-0.4,3.8-1.1,5.9c-0.7,2.2-1.7,4.3-3,6.5c-1.3,2.2-2.8,4.3-4.5,6.2c-1.8,2-3.7,3.7-5.7,5
			c-1.5,4.2-2.7,8.2-3.5,12.1c-0.8,3.9-1.2,7.2-1.2,9.9c0.7-2,1.7-4.3,2.7-6.8c1.1-2.5,2.3-4.8,3.6-7c1.3-2.2,2.8-4,4.4-5.5
			c1.6-1.5,3.2-2.2,5-2.2c1.7,0,3.2,0.7,4.4,2c1.2,1.3,1.8,2.9,1.8,4.8c0,1.6-0.4,3-1.2,4.2c-0.8,1.2-1.7,2.1-2.8,2.8
			c-1.1,0.7-2.2,1.2-3.3,1.5c-1.1,0.3-2,0.5-2.7,0.5c0,0.4,0.2,1.2,0.4,2.3c0.2,1.1,0.6,2.2,1,3.3c0.4,1.1,1,2.1,1.7,3
			c0.7,0.9,1.5,1.3,2.4,1.3c1,0,1.9-0.3,2.9-1c0.9-0.6,1.9-1.5,2.7-2.7c0.9-1.1,1.7-2.5,2.5-4c0.8-1.5,1.5-3.2,2.3-4.9l0.7,0.8
			c-0.5,1.9-1.2,3.7-2.1,5.5c-0.9,1.8-1.9,3.3-3.1,4.7c-1.1,1.4-2.3,2.4-3.6,3.3c-1.3,0.8-2.5,1.2-3.7,1.2c-1.4,0-2.5-0.5-3.4-1.5
			c-0.9-1-1.7-2.2-2.2-3.7c-0.6-1.4-1-2.9-1.2-4.5C214.7,92.7,214.6,91.3,214.6,90.1z M222,52.4c-0.4,0-0.9,0.5-1.7,1.6
			c-0.8,1.1-1.6,2.5-2.6,4.2c-1,1.8-2,3.8-3.1,6.2c-1.1,2.4-2.1,4.8-3.2,7.4c1.6-1.4,3.1-3,4.4-4.8c1.3-1.7,2.5-3.5,3.4-5.2
			c0.9-1.7,1.7-3.4,2.2-4.9c0.5-1.5,0.8-2.8,0.8-3.8C222.2,52.6,222.2,52.4,222,52.4z"/>
		<path d="M252,84.7c0.2,0.1,0.4,0.1,0.8,0.2c0.3,0.1,0.6,0.2,0.9,0.4c0.3,0.2,0.6,0.3,0.8,0.5c0.2,0.2,0.3,0.5,0.3,0.8
			c0,0.5-0.2,1.1-0.6,1.9c-0.4,0.8-0.9,1.7-1.4,2.7c-0.5,1-1,2-1.4,3.1c-0.4,1.1-0.6,2-0.6,3c0,0.8,0.2,1.5,0.6,2.3
			c0.4,0.7,1,1.1,1.8,1.1c1.3,0,2.9-1,5-3c2.1-2,4.1-5,6.3-9.1l0.7,0.8c-0.8,2.1-1.7,4-2.7,5.7c-1.1,1.7-2.2,3.2-3.5,4.4
			c-1.2,1.2-2.5,2.2-3.8,2.8c-1.3,0.7-2.6,1-3.9,1c-1.7,0-3-0.6-3.8-1.7c-0.8-1.1-1.2-2.4-1.2-3.7c0-0.6,0.1-1.4,0.2-2.2
			c-2.1,3-3.9,5.2-5.6,6.7c-1.6,1.5-3.3,2.2-5.1,2.2c-1.5,0-2.7-0.5-3.7-1.6c-1-1.1-1.5-2.7-1.5-4.8c0-1.5,0.3-3.2,0.8-4.9
			c0.5-1.7,1.3-3.5,2.2-5.3c0.9-1.8,2-3.5,3.3-5.1c1.3-1.6,2.6-3,4-4.3c1.4-1.2,2.9-2.2,4.5-3c1.5-0.7,3.1-1.1,4.6-1.1
			c1.8,0,3.4,0.5,4.6,1.6c1.2,1.1,1.8,2.4,1.8,4.2c0,1.3-0.3,2.2-0.9,2.6c-0.6,0.5-1.5,0.7-2.5,0.7c0.2-0.9,0.4-1.8,0.4-2.7
			c0-1.2-0.3-2.2-0.8-3c-0.5-0.8-1.4-1.3-2.7-1.3c-1.1,0-2.3,0.4-3.4,1.1c-1.1,0.7-2.2,1.7-3.3,2.9c-1.1,1.2-2.1,2.6-3,4.1
			c-0.9,1.5-1.8,3.1-2.5,4.7c-0.7,1.6-1.3,3.2-1.7,4.8c-0.4,1.6-0.6,3-0.6,4.2c0,2,0.6,3,1.9,3c1.1,0,2.3-0.6,3.7-1.8
			c1.4-1.2,2.7-2.7,4.1-4.5c1.4-1.7,2.7-3.6,3.9-5.5C250.1,87.8,251.1,86.1,252,84.7z"/>
		<path d="M278.1,75.1c1,0,1.8,0.2,2.4,0.5c0.6,0.3,1.1,0.8,1.5,1.3c0.4,0.5,0.6,1.2,0.8,1.8c0.2,0.7,0.2,1.4,0.2,2
			c0,1.5-0.3,2.8-0.9,3.9c-0.6,1.1-1.5,1.7-2.6,1.7c-0.8,0-1.5-0.4-2-1.2c0.7-0.4,1.3-1.2,1.8-2.5c0.5-1.2,0.8-2.4,0.8-3.6
			c0-0.6-0.1-1.1-0.3-1.4c-0.2-0.3-0.6-0.5-1.2-0.5c-1.3,0-2.6,0.6-3.9,1.9c-1.4,1.3-2.6,2.8-3.7,4.7c-1.1,1.9-2.1,3.9-2.8,6.1
			c-0.7,2.2-1.1,4.2-1.1,6.1c0,0.8,0.1,1.5,0.2,2.3c0.2,0.8,0.4,1.5,0.8,2.1c0.4,0.6,0.9,1.1,1.6,1.5c0.7,0.4,1.5,0.5,2.5,0.5
			c1.4,0,2.8-0.3,4.3-1c1.4-0.6,2.8-1.6,4.1-2.8c1.3-1.2,2.6-2.7,3.7-4.4c1.1-1.7,2.1-3.7,2.8-5.8l0.9,0.8c-0.8,2.3-1.8,4.4-3.1,6.4
			c-1.3,2-2.7,3.7-4.3,5.1c-1.5,1.4-3.2,2.5-4.9,3.3c-1.7,0.8-3.4,1.2-5.1,1.2c-2.3,0-4.1-0.8-5.6-2.4c-1.5-1.6-2.3-4.1-2.3-7.4
			c0-2.6,0.5-5.1,1.4-7.5c0.9-2.5,2.1-4.7,3.6-6.6c1.5-1.9,3.1-3.5,5-4.6C274.5,75.6,276.3,75.1,278.1,75.1z"/>
		<path d="M303.2,98c0-0.8,0.1-1.7,0.4-2.7c0.2-0.9,0.5-1.9,0.7-3c0.3-1,0.5-2,0.7-3.1c0.2-1,0.4-2,0.4-2.9c0-1.3-0.3-2.3-0.8-2.8
			c-0.5-0.6-1.1-0.8-1.9-0.8c-1.2,0-2.2,0.5-3.2,1.6c-0.9,1.1-1.8,2.4-2.6,3.9c-0.8,1.6-1.5,3.3-2.1,5.1c-0.7,1.8-1.3,3.6-1.9,5.1
			c-0.6,1.6-1.3,2.9-1.9,3.9c-0.6,1-1.2,1.6-1.9,1.6c-0.4,0-0.8-0.2-1.2-0.7c-0.4-0.5-0.7-1.1-0.9-1.8c-0.2-0.7-0.4-1.6-0.6-2.5
			c-0.1-0.9-0.2-1.9-0.2-3c0-2.5,0.4-5.4,1.1-8.8c0.7-3.4,1.7-7,3-10.6c1.2-3.7,2.6-7.3,4.1-11c1.5-3.6,3.1-6.9,4.6-9.8
			c1.5-2.9,3-5.2,4.5-7c1.4-1.8,2.7-2.7,3.7-2.7c0.4,0,0.8,0.2,1.1,0.5c0.3,0.3,0.5,0.7,0.7,1.2c0.2,0.5,0.3,1,0.4,1.6
			c0.1,0.6,0.1,1.1,0.1,1.6c0,1.2-0.2,2.6-0.6,4.3c-0.4,1.7-1,3.4-1.7,5.3c-0.7,1.9-1.6,3.8-2.6,5.7c-1,1.9-2.1,3.8-3.3,5.6
			c-1.2,1.8-2.5,3.4-3.8,4.8c-1.4,1.5-2.7,2.7-4.1,3.6c-0.4,1.1-0.8,2.4-1.1,3.7c-0.3,1.3-0.6,2.7-0.8,4c-0.2,1.4-0.4,2.7-0.5,4
			c-0.1,1.3-0.2,2.4-0.2,3.5c0,0.6,0,1.1,0,1.5c0,0.4,0.1,0.8,0.1,1.2c0.8-2.6,1.8-5.1,2.7-7.5c1-2.4,2.1-4.5,3.3-6.4
			c1.2-1.8,2.5-3.3,3.9-4.4c1.4-1.1,2.8-1.6,4.4-1.6c1,0,1.8,0.2,2.5,0.6c0.7,0.4,1.2,0.9,1.7,1.6c0.4,0.6,0.7,1.4,0.9,2.2
			c0.2,0.8,0.3,1.7,0.3,2.5c0,1.2-0.2,2.3-0.5,3.5c-0.3,1.2-0.7,2.3-1.1,3.3c-0.4,1.1-0.8,2.1-1.1,3.2c-0.3,1-0.5,2-0.5,2.9
			c0,1,0.2,1.8,0.6,2.2c0.4,0.5,0.9,0.7,1.5,0.7c0.8,0,1.7-0.3,2.7-1c1-0.7,2-1.5,3-2.7c1-1.1,1.9-2.4,2.9-3.9
			c0.9-1.5,1.8-3.1,2.5-4.8l0.9,0.9c-0.8,1.9-1.6,3.7-2.6,5.3c-1,1.6-2.1,3-3.2,4.2c-1.2,1.2-2.4,2.2-3.7,2.8c-1.3,0.7-2.6,1-4,1
			c-1.6,0-2.9-0.5-3.7-1.4C303.6,100.6,303.2,99.4,303.2,98z M306.9,52.4c-0.4,0-1.1,0.7-2.1,2.1c-1,1.4-2.1,3.3-3.4,5.6
			c-1.3,2.3-2.5,5-3.8,8c-1.3,3-2.4,6.1-3.3,9.2c1.6-1.4,3.2-3.3,4.7-5.7c1.5-2.3,2.9-4.7,4.1-7.2c1.2-2.4,2.2-4.7,2.9-6.8
			c0.7-2.1,1.1-3.7,1.1-4.7C307.2,52.6,307.1,52.4,306.9,52.4z"/>
		<path d="M340.6,78.1c0,1.9-0.5,3.8-1.6,5.5c-1.1,1.7-2.4,3.2-4.1,4.6c-1.7,1.3-3.6,2.4-5.6,3.3c-2.1,0.8-4.1,1.4-6.1,1.6
			c-0.1,0.5-0.2,1-0.2,1.5c0,0.5-0.1,0.9-0.1,1.3c0,0.8,0.1,1.5,0.2,2.3c0.2,0.8,0.5,1.5,0.9,2.1c0.4,0.6,1,1.1,1.7,1.5
			c0.7,0.4,1.6,0.6,2.7,0.6c1.5,0,3-0.4,4.5-1.1c1.5-0.7,2.9-1.7,4.3-3c1.4-1.3,2.6-2.7,3.8-4.3c1.2-1.6,2.2-3.4,3.1-5.2l0.8,0.7
			c-0.9,2.3-2.1,4.4-3.4,6.3c-1.4,1.9-2.8,3.5-4.4,4.8c-1.6,1.3-3.2,2.3-5,3c-1.8,0.7-3.5,1.1-5.2,1.1c-2.9,0-5-0.9-6.4-2.6
			c-1.4-1.7-2.1-3.8-2.1-6.3c0-1.5,0.2-3.2,0.7-4.8c0.5-1.7,1.2-3.4,2-5c0.9-1.6,1.9-3.2,3-4.7c1.1-1.5,2.4-2.8,3.7-3.9
			c1.3-1.1,2.7-2,4.1-2.7c1.4-0.7,2.8-1,4.2-1c1.1,0,2.1,0.3,3,0.9C340.1,74.9,340.6,76.2,340.6,78.1z M336,75.8
			c-1.1,0-2.3,0.5-3.6,1.4c-1.3,0.9-2.5,2.2-3.7,3.7c-1.2,1.5-2.2,3.2-3.2,5.1c-0.9,1.9-1.6,3.7-2.1,5.6c1.3-0.5,2.7-1.1,4.3-2
			c1.6-0.9,3.1-2,4.6-3.2c1.5-1.2,2.7-2.6,3.7-4.1c1-1.5,1.5-3,1.5-4.7c0-0.6-0.1-1-0.3-1.3C337,75.9,336.6,75.8,336,75.8z"/>
		<path d="M340.2,100.5c0-0.2,0.3-1,0.8-2.4c0.5-1.4,1.1-3,1.7-4.9c0.6-1.9,1.2-3.9,1.7-6c0.5-2.1,0.8-4,0.8-5.7
			c0.3-0.4,0.7-0.7,1.3-1.1c0.6-0.4,1.2-0.5,1.9-0.5c1.3,0,1.9,0.7,1.9,2c0,0.8-0.2,2.2-0.6,4.1c-0.4,1.9-1,3.9-1.6,6.1
			c0.9-1.5,2-3.1,3.1-4.7c1.1-1.6,2.3-3.1,3.6-4.4c1.3-1.3,2.6-2.4,3.9-3.2c1.3-0.8,2.7-1.2,4-1.2c0.9,0,1.7,0.2,2.3,0.6
			c0.7,0.4,1.2,0.9,1.6,1.6c0.4,0.7,0.7,1.4,0.9,2.2c0.2,0.8,0.3,1.7,0.3,2.5c0,1.2-0.2,2.3-0.5,3.4c-0.3,1.1-0.6,2.1-1,3.1
			c-0.4,1-0.7,1.9-1,2.9c-0.3,0.9-0.5,1.9-0.5,2.8c0,1.1,0.2,1.8,0.6,2.3c0.4,0.4,0.9,0.7,1.5,0.7c0.9,0,1.8-0.4,2.7-1.1
			c0.9-0.7,1.8-1.7,2.6-2.8c0.8-1.2,1.7-2.4,2.4-3.8c0.8-1.4,1.5-2.8,2.1-4.3l0.8,1c-0.8,1.9-1.6,3.6-2.4,5.2
			c-0.9,1.6-1.8,3-2.8,4.1c-1,1.2-2.1,2.1-3.2,2.7c-1.1,0.6-2.4,1-3.7,1c-1.6,0-2.9-0.5-3.7-1.4c-0.8-0.9-1.2-2.1-1.2-3.5
			c0-0.8,0.1-1.6,0.3-2.5c0.2-0.9,0.4-1.8,0.7-2.7c0.3-0.9,0.5-1.8,0.7-2.8c0.2-0.9,0.3-1.8,0.3-2.8c0-1.4-0.3-2.4-0.8-3
			c-0.5-0.5-1.2-0.8-2-0.8c-1.5,0-2.9,0.7-4.4,2c-1.5,1.3-3,3-4.4,5c-1.4,2-2.7,4-4,6.2c-1.2,2.2-2.3,4.1-3.2,5.8
			c-0.8,0-1.5-0.1-2.1-0.4C341.1,101.5,340.6,101.1,340.2,100.5z"/>
		<path d="M389.4,90.1c0.5,0,1.3-0.1,2.3-0.4c1-0.3,2-0.7,3-1.3c1-0.6,1.9-1.3,2.6-2.3c0.7-0.9,1.1-2,1.1-3.4c0-1.1-0.4-1.9-1.1-2.5
			c-0.7-0.6-1.5-0.9-2.5-0.9c-1.4,0-2.7,0.5-3.9,1.6c-1.2,1.1-2.3,2.4-3.3,4c-1,1.6-1.9,3.3-2.7,5.2c-0.8,1.9-1.5,3.7-2,5.3
			c-0.6,1.7-1,3.1-1.4,4.4c-0.4,1.3-0.6,2-0.8,2.3c-0.2,0.5-0.6,0.8-1.1,1c-0.5,0.2-0.9,0.3-1.3,0.3c-0.6,0-1.1-0.2-1.4-0.6
			c-0.3-0.4-0.6-1-0.7-1.7c-0.2-0.7-0.3-1.5-0.3-2.3c0-0.9,0-1.7,0-2.6c0-2.7,0.4-5.8,1.2-9.3c0.8-3.5,1.9-7.1,3.2-10.8
			c1.3-3.7,2.8-7.4,4.4-11c1.6-3.6,3.2-6.8,4.8-9.6c1.6-2.8,3.1-5.1,4.4-6.8c1.4-1.7,2.5-2.6,3.3-2.6c0.7,0,1.2,0.5,1.6,1.5
			c0.4,1,0.6,2.2,0.6,3.5c0,1.8-0.4,3.8-1.1,5.9c-0.7,2.2-1.7,4.3-3,6.5c-1.3,2.2-2.8,4.3-4.5,6.2c-1.8,2-3.7,3.7-5.7,5
			c-1.5,4.2-2.7,8.2-3.5,12.1c-0.8,3.9-1.2,7.2-1.2,9.9c0.7-2,1.7-4.3,2.7-6.8c1.1-2.5,2.3-4.8,3.6-7c1.3-2.2,2.8-4,4.4-5.5
			c1.6-1.5,3.2-2.2,5-2.2c1.7,0,3.2,0.7,4.4,2c1.2,1.3,1.8,2.9,1.8,4.8c0,1.6-0.4,3-1.2,4.2c-0.8,1.2-1.7,2.1-2.8,2.8
			c-1.1,0.7-2.2,1.2-3.3,1.5c-1.1,0.3-2,0.5-2.7,0.5c0,0.4,0.2,1.2,0.4,2.3c0.2,1.1,0.6,2.2,1,3.3c0.4,1.1,1,2.1,1.7,3
			c0.7,0.9,1.5,1.3,2.4,1.3c1,0,1.9-0.3,2.9-1c0.9-0.6,1.9-1.5,2.7-2.7c0.9-1.1,1.7-2.5,2.5-4c0.8-1.5,1.5-3.2,2.3-4.9l0.7,0.8
			c-0.5,1.9-1.2,3.7-2.1,5.5c-0.9,1.8-1.9,3.3-3.1,4.7c-1.1,1.4-2.3,2.4-3.6,3.3c-1.3,0.8-2.5,1.2-3.7,1.2c-1.4,0-2.5-0.5-3.4-1.5
			c-0.9-1-1.7-2.2-2.2-3.7c-0.6-1.4-1-2.9-1.2-4.5C389.5,92.7,389.4,91.3,389.4,90.1z M396.9,52.4c-0.4,0-0.9,0.5-1.7,1.6
			c-0.8,1.1-1.6,2.5-2.6,4.2c-1,1.8-2,3.8-3.1,6.2c-1.1,2.4-2.1,4.8-3.2,7.4c1.6-1.4,3.1-3,4.4-4.8c1.3-1.7,2.5-3.5,3.4-5.2
			c0.9-1.7,1.7-3.4,2.2-4.9c0.5-1.5,0.8-2.8,0.8-3.8C397.1,52.6,397,52.4,396.9,52.4z"/>
		<path d="M426.1,96.2c-1.3,0-2.4-0.3-3.4-0.8c-1.6,2.3-3.4,4.2-5.3,5.8c-1.9,1.5-3.7,2.3-5.5,2.3c-2,0-3.4-0.7-4.3-2
			c-0.8-1.4-1.3-3-1.3-5c0-1.6,0.2-3.2,0.7-5c0.5-1.7,1.1-3.3,1.8-4.7c0.7-1.4,1.6-2.6,2.6-3.6c1-0.9,2-1.4,3-1.4
			c0.4,0,0.9,0.1,1.5,0.4c-0.4,0.4-0.9,1.2-1.5,2.3c-0.6,1.1-1.1,2.4-1.7,3.8c-0.5,1.4-0.9,2.8-1.3,4.2c-0.4,1.4-0.5,2.6-0.5,3.5
			c0,1.5,0.2,2.7,0.7,3.3c0.4,0.7,1.1,1,1.9,1c1,0,2.2-0.6,3.5-1.7c1.4-1.2,2.7-2.6,4-4.4c-1.4-1.2-2.4-2.7-3.1-4.7
			c-0.7-1.9-1.1-3.9-1.1-5.9c0-1.3,0.2-2.5,0.5-3.7c0.3-1.2,0.7-2.2,1.3-3.1c0.6-0.9,1.3-1.6,2.1-2.2c0.8-0.5,1.8-0.8,3-0.8
			c1.9,0,3.2,0.6,3.9,1.7c0.7,1.1,1,2.5,1,4.2c0,2-0.4,4.2-1.3,6.7c-0.9,2.4-2,4.8-3.4,7c0.5,0.3,1,0.5,1.6,0.7
			c0.4,0.1,0.8,0.1,1.1,0.1c1.6,0,3.2-0.4,3.2-0.4c1.4-0.6,3.5-1.7,5.7-3.5c1.7-1.4,4.5-3.9,6.3-8.3c1.4-3.6,1.5-7,1.4-9.1
			c0.3,0.1,0.6,0.2,0.8,0.2c0.2,2.8-0.1,5-0.4,6.5c-2.6,11.7-14,15.8-15.1,16.2C427.3,96.2,426.1,96.2,426.1,96.2z M419.9,83.9
			c0,1.5,0.2,3,0.6,4.5c0.4,1.5,1,2.8,1.8,3.8c1.2-1.9,2.1-3.9,2.9-6c0.8-2.1,1.2-4,1.2-5.9c0-1.5-0.2-2.6-0.6-3.3
			c-0.4-0.7-0.9-1-1.5-1c-0.5,0-1,0.2-1.5,0.6c-0.5,0.4-1,1-1.4,1.7c-0.4,0.7-0.8,1.5-1.1,2.5C420.1,81.7,419.9,82.8,419.9,83.9z"/>
		<path class="st5" d="M432.4,93.5c0.9-0.8,2.3-1.9,4-3.1c3.2-2.2,9.2-6.3,16-7.6c7.7-1.5,17.9,0.5,23.7,7.7c0.6,0.7,5.5,7,3.4,10.4
			c-1,1.7-4.1,2.3-6.3,2c-1.9-0.2-3.2-1.1-3.6-0.5c-0.4,0.5,0.3,1.9,1.1,3.1"/>
		<path d="M460.4,92.7c0.3,0.1,1.2,0.4,1.9-0.1c0.8-0.5,1.1-1.6,1.1-2.4c-0.1-1.5-1.2-2.5-2-3.1c-3.2-2.7-8.2-2.6-10.1-2.5
			c3.2,1.1,4.8,2.8,5.7,4.1C458.1,90.2,458.7,92,460.4,92.7z"/>
		<path d="M450,90.2c0.2,0,0.8,0,1.2-0.5c0.4-0.5,0.4-1.3,0.2-1.8c-0.3-0.9-1.3-1.2-1.8-1.4c-2.5-0.9-5.6,0.4-6.8,0.9
			c2.2-0.1,3.5,0.6,4.4,1.2C448.1,89.3,448.8,90.3,450,90.2z"/>
	</g>
</g>
</svg>
